<?xml version="1.0" standalone="no"?>
<!DOCTYPE svg PUBLIC "-//W3C//DTD SVG 1.1//EN" "http://www.w3.org/Graphics/SVG/1.1/DTD/svg11.dtd" >
<svg>
<metadata>
Created by FontForge 20090914 at Thu Jul  9 22:35:53 2015
 By www-data
&#194;&#169; Dutch Design: Albert-Jan Pool, 1995. Published by FontShop International FontFont release 15
</metadata>
<defs>
<font id="DINBold" horiz-adv-x="543" >
  <font-face 
    font-family="DIN"
    font-weight="400"
    font-stretch="normal"
    units-per-em="1000"
    panose-1="0 0 4 0 0 0 0 0 0 0"
    ascent="800"
    descent="-200"
    x-height="521"
    cap-height="712"
    bbox="-115 -206.001 1158 1015"
    underline-thickness="87"
    underline-position="-92"
    unicode-range="U+0020-U+F002"
  />
<missing-glyph horiz-adv-x="500" 
d="M63 0v803h375v-803h-375zM125 63h250v678h-250v-678z" />
    <glyph glyph-name=".notdef" horiz-adv-x="500" 
d="M63 0v803h375v-803h-375zM125 63h250v678h-250v-678z" />
    <glyph glyph-name="space" unicode=" " horiz-adv-x="232" 
 />
    <glyph glyph-name="exclam" unicode="!" horiz-adv-x="347" 
d="M272 712l-31 -489h-98l-31 489h160zM261 0h-138v133h138v-133z" />
    <glyph glyph-name="quotedbl" unicode="&#x22;" horiz-adv-x="464" 
d="M395 501h-121v211h121v-211zM190 501h-122v211h122v-211z" />
    <glyph glyph-name="numbersign" unicode="#" horiz-adv-x="691" 
d="M643 420h-89l-16 -108h69v-122h-89l-30 -190h-137l31 190h-116l-30 -190h-137l30 190h-69v122h89l16 108h-70v121h89l28 177h137l-28 -177h116l28 177h136l-27 -177h69v-121zM417 420h-115l-17 -108h116z" />
    <glyph glyph-name="dollar" unicode="$" horiz-adv-x="619" 
d="M571 210c0 -59.333 -20.332 -107.998 -60.999 -145.998c-38 -36 -89.333 -58 -154 -66v-112h-101v108c-98.667 3.33301 -177.334 34.666 -236.001 93.999l90 90c38 -38 91 -58 159 -60v181l-32 4c-59.333 7.33301 -105.666 27.666 -138.999 60.999s-50 79.333 -50 138
c0 58 18.5 106.5 55.5 145.5s87.833 61.833 152.5 68.5v90h101v-89c80 -4.66699 145.667 -32 197 -82l-88 -87c-29.333 28 -70.333 44 -123 48v-174l38 -6c61.333 -10 106.666 -28.667 135.999 -56c36.667 -34.667 55 -84.667 55 -150zM268.001 428.002l-0.000976562 167
c-58 -8 -87 -37.333 -87 -88c0 -20.667 7.33301 -38 22 -52s36.334 -23 65.001 -27zM435 206.002c0 26 -7.33203 46 -21.999 60c-12.667 12 -36.334 20.667 -71.001 26v-172c62 7.33301 93 36 93 86z" />
    <glyph glyph-name="percent" unicode="%" horiz-adv-x="848" 
d="M796 131c0 -43.333 -13.833 -77 -41.5 -101s-62.167 -36 -103.5 -36s-75.333 11.667 -102 35c-28.667 24.667 -43 58.667 -43 102v99c0 43.333 14.333 77.333 43 102c26.667 23.333 60.667 35 102 35s75.833 -12 103.5 -36s41.5 -57.667 41.5 -101v-99zM644 712
l-337 -712h-102l337 712h102zM342 482c0 -43.333 -13.833 -77 -41.5 -101s-62.167 -36 -103.5 -36s-75.333 11.667 -102 35c-28.667 24.667 -43 58.667 -43 102v99c0 43.333 14.333 77.333 43 102c26.667 23.333 60.667 35 102 35s75.833 -12 103.5 -36
s41.5 -57.667 41.5 -101v-99zM702 135v91c0 38 -17 57 -51 57s-51 -19 -51 -57v-91c0 -38 17 -57 51 -57s51 19 51 57zM248 486v91c0 38 -17 57 -51 57s-51 -19 -51 -57v-91c0 -38 17 -57 51 -57s51 19 51 57z" />
    <glyph glyph-name="ampersand" unicode="&#x26;" horiz-adv-x="721" 
d="M696 0l-165.001 -0.000976562l-52 62c-26.667 -20.667 -48.667 -35.334 -66 -44.001c-34 -16 -73.333 -24 -118 -24c-77.333 0 -135.833 19 -175.5 57s-59.5 91 -59.5 159c0 70.667 42.667 134.334 128 191.001c-47.333 54 -71 104.333 -71 151
c0 49.333 17 89.333 51 120s80.333 46 139 46c55.333 0 99.5 -15.667 132.5 -47s49.5 -71.666 49.5 -120.999c0 -47.333 -24.333 -88.666 -73 -123.999l-51 -37l120 -142c22 29.333 34 71 36 125h123c-5.33301 -96.667 -30.666 -170.334 -75.999 -221.001zM365.999 548.999
c0 16.667 -5.33301 30.501 -16 41.501s-25 16.5 -43 16.5c-39.333 0 -59 -19.333 -59 -58c0 -16.667 15.667 -43.334 47 -80.001l30 20c27.333 18 41 38 41 60zM399.999 154l-142.001 166.999c-48 -33.333 -72 -69.666 -72 -108.999c0 -29.333 10.333 -53.333 31 -72
s46.334 -28 77.001 -28c38.667 0 74 14 106 42z" />
    <glyph glyph-name="quotesingle" unicode="'" horiz-adv-x="259" 
d="M191 501h-123v211h123v-211z" />
    <glyph glyph-name="parenleft" unicode="(" horiz-adv-x="336" 
d="M281 -7l-87.001 -87c-24 24 -40 40.333 -48 49c-16.667 18.667 -30 36.667 -40 54c-17.333 30 -26 73 -26 129v436c0 56 8.66699 99 26 129c14 24 43.333 58.333 88 103l87 -87c-16 -16 -26.333 -26.667 -31 -32c-9.33301 -10.667 -17.666 -22.334 -24.999 -35.001
c-10 -17.333 -15 -45.333 -15 -84v-424c0 -38.667 5 -66.667 15 -84s28.667 -39.666 56 -66.999z" />
    <glyph glyph-name="parenright" unicode=")" horiz-adv-x="336" 
d="M256 138c0 -56 -8.66602 -99.002 -25.999 -129.002c-14 -24 -43.333 -58.333 -88 -103l-88 88l31 31c9.33301 10.667 17.666 22.334 24.999 35.001c10 17.333 15 45.333 15 84v424c0 38.667 -4.83301 66.334 -14.5 83.001s-28.5 39 -56.5 67l88 88
c24 -24 40 -40.333 48 -49c16.667 -18.667 30 -36.667 40 -54c17.333 -30 26 -73 26 -129v-436z" />
    <glyph glyph-name="asterisk" unicode="*" horiz-adv-x="494" 
d="M440 460l-46 -79l-105 66l4 -125h-92l5 125l-106 -66l-45 79l110 58l-110 58l45 80l106 -67l-5 125h92l-4 -125l105 67l46 -80l-111 -58z" />
    <glyph glyph-name="plus" unicode="+" 
d="M493 216h-160v-160h-122v160h-161v122h161v160h122v-160h160v-122z" />
    <glyph glyph-name="comma" unicode="," horiz-adv-x="279" 
d="M211 -55l-143 -110v307h143v-197z" />
    <glyph glyph-name="hyphen" unicode="-" horiz-adv-x="426" 
d="M367 225h-308v121h308v-121z" />
    <glyph glyph-name="hyphen" unicode="&#x2010;" horiz-adv-x="426" 
d="M367 225h-308v121h308v-121z" />
    <glyph glyph-name="period" unicode="." horiz-adv-x="285" 
d="M217 0h-149v148h149v-148z" />
    <glyph glyph-name="slash" unicode="/" horiz-adv-x="403" 
d="M407 786l-285 -860h-122l285 860h122z" />
    <glyph glyph-name="zero" unicode="0" 
d="M488 206c0 -65.333 -21.333 -117.666 -64 -156.999c-40.667 -36.667 -91.334 -55 -152.001 -55s-111.334 18.333 -152.001 55c-43.333 39.333 -65 91.666 -65 156.999v300c0 65.333 21.667 117.666 65 156.999c40.667 36.667 91.334 55 152.001 55
s111.334 -18.333 152.001 -55c42.667 -39.333 64 -91.666 64 -156.999v-300zM358 207v297c0 30 -7.83301 53.667 -23.5 71s-36.5 26 -62.5 26s-47 -8.83301 -63 -26.5s-24 -41.167 -24 -70.5v-297c0 -29.333 8 -52.666 24 -69.999s37 -26 63 -26s46.833 8.66699 62.5 26
s23.5 40.666 23.5 69.999z" />
    <glyph glyph-name="one" unicode="1" 
d="M378 0h-130v572l-145 -126v140l145 126h130v-712z" />
    <glyph glyph-name="two" unicode="2" 
d="M492 0l-433 -0.00195312v117l266 309c24.667 28.667 37 57.334 37 86.001c0 26.667 -7.5 48.167 -22.5 64.5s-36.167 24.5 -63.5 24.5c-58 0 -87 -30.333 -87 -91h-130c0 63.333 21 114.333 63 153c40 36.667 91.333 55 154 55c64 0 116 -18.667 156 -56
s60 -87.666 60 -150.999c0 -32 -6.66699 -60.667 -20 -86c-9.33301 -19.333 -28 -45 -56 -77l-199 -231h275v-117z" />
    <glyph glyph-name="three" unicode="3" 
d="M495 206c0 -68 -22.3301 -120.999 -66.9971 -158.999c-41.333 -35.333 -94.333 -53 -159 -53c-63.333 0 -115.333 16.333 -156 49c-46.667 37.333 -70.334 91 -71.001 161h130c0.666992 -30.667 10.667 -54 30 -70c17.333 -15.333 39.666 -23 66.999 -23
c28.667 0 51.834 8.66699 69.501 26s26.5 41.666 26.5 72.999c0 30 -8.83301 53.833 -26.5 71.5s-42.167 26.5 -73.5 26.5h-19v113h19c60 0 90 29.667 90 89c0 28.667 -8.33301 51 -25 67s-37.334 24 -62.001 24s-45.167 -7.66699 -61.5 -23s-25.166 -36.333 -26.499 -63
h-130c1.33301 62 22.666 111.333 63.999 148s92.666 55 153.999 55c63.333 0 115.333 -19 156 -57s61 -87 61 -147c0 -68 -27.333 -116.667 -82 -146c61.333 -32.667 92 -86.667 92 -162z" />
    <glyph glyph-name="four" unicode="4" 
d="M512 101h-65v-101h-125v101h-291v123l244 488h142l-244 -488h149v133h125v-133h65v-123z" />
    <glyph glyph-name="five" unicode="5" 
d="M494 240c0 -43.333 -4 -77.999 -12 -103.999c-9.33301 -31.333 -26.333 -59.333 -51 -84c-38.667 -38.667 -91 -58 -157 -58c-68 0 -121 19 -159 57c-33.333 33.333 -52.666 82.666 -57.999 147.999h130c7.33301 -58.667 36.333 -88 87 -88c26 0 46.667 7.66699 62 23
c18.667 18.667 28 54 28 106c0 85.333 -29 128 -87 128c-44.667 0 -73.334 -19.333 -86.001 -58h-119v402h406v-117h-288v-153c25.333 24 61 36 107 36c56.667 0 101 -16 133 -48c42.667 -42.667 64 -106 64 -190z" />
    <glyph glyph-name="six" unicode="6" 
d="M492 216c0 -68.667 -20.832 -122.833 -62.499 -162.5s-94.834 -59.5 -159.501 -59.5s-117.334 19 -158.001 57c-42.667 40 -64 94.333 -64 163c0 44.667 20 108 60 190l150 308h142l-148 -294c14.667 6 32.334 9 53.001 9c50.667 0 94 -18.667 130 -56
c38 -40 57 -91.667 57 -155zM362.001 215.001c0 31.333 -8.5 56.5 -25.5 75.5s-39.167 28.5 -66.5 28.5s-49.5 -9.33301 -66.5 -28s-25.5 -44 -25.5 -76s8.5 -57.333 25.5 -76s39.167 -28 66.5 -28s49.5 9.33301 66.5 28s25.5 44 25.5 76z" />
    <glyph glyph-name="seven" unicode="7" 
d="M503 595l-231 -595h-141l231 595h-188v-112h-124v229h453v-117z" />
    <glyph glyph-name="eight" unicode="8" 
d="M500 207c0 -66.667 -22.3311 -119.333 -66.998 -158c-41.333 -36.667 -95 -55 -161 -55s-119.667 18.333 -161 55c-44.667 38.667 -67 91.334 -67 158.001c0 67.333 29.667 120.666 89 159.999c-53.333 37.333 -80 86.666 -80 147.999s21.667 111 65 149
c41.333 36 92.666 54 153.999 54s112.666 -18 153.999 -54c42.667 -38 64 -87.667 64 -149s-26.667 -110.666 -80 -147.999c60 -40 90 -93.333 90 -160zM360.002 511.001c0 25.333 -8.33301 46.666 -25 63.999s-37.667 26 -63 26s-46.5 -8.66699 -63.5 -26
s-25.5 -38.666 -25.5 -63.999c0 -26 8.5 -47.5 25.5 -64.5s38.167 -25.5 63.5 -25.5s46.333 8.5 63 25.5s25 38.5 25 64.5zM370.002 209.001c0 27.333 -9.5 50.666 -28.5 69.999s-42.167 29 -69.5 29s-50.5 -9.66699 -69.5 -29s-28.5 -42.666 -28.5 -69.999
s9.5 -50.5 28.5 -69.5s42.167 -28.5 69.5 -28.5s50.5 9.5 69.5 28.5s28.5 42.167 28.5 69.5z" />
    <glyph glyph-name="nine" unicode="9" 
d="M495 498c0 -46.667 -19.668 -110.001 -59.001 -190.001l-151 -308h-141l148 294c-14.667 -6 -32.334 -9 -53.001 -9c-50.667 0 -94 18.667 -130 56c-38.667 40 -58 91.667 -58 155c0 68.667 21.333 123.334 64 164.001c40.667 38.667 93.334 58 158.001 58
s117.334 -19 158.001 -57c42.667 -40 64 -94.333 64 -163zM364.999 496.999c0 32 -8.5 57.333 -25.5 76s-39.167 28 -66.5 28s-49.5 -9.33301 -66.5 -28s-25.5 -44 -25.5 -76c0 -31.333 8.5 -56.5 25.5 -75.5s39.167 -28.5 66.5 -28.5s49.5 9.33301 66.5 28s25.5 44 25.5 76
z" />
    <glyph glyph-name="colon" unicode=":" horiz-adv-x="309" 
d="M241 271h-148v148h148v-148zM241 0h-148v148h148v-148z" />
    <glyph glyph-name="semicolon" unicode=";" horiz-adv-x="309" 
d="M241 271h-148v148h148v-148zM238 -55l-142 -110v307h142v-197z" />
    <glyph glyph-name="less" unicode="&#x3c;" horiz-adv-x="1027" 
d="M976 224h-703l326 -324h-164l-385 385l385 385h164l-326 -323h703v-123z" />
    <glyph glyph-name="equal" unicode="=" 
d="M493 333h-443v122h443v-122zM493 116h-443v122h443v-122z" />
    <glyph glyph-name="greater" unicode="&#x3e;" horiz-adv-x="1027" 
d="M977 285l-385 -385h-164l326 324h-704v123h704l-326 323h164z" />
    <glyph glyph-name="question" unicode="?" horiz-adv-x="523" 
d="M487 518c0 -40 -16.3311 -81.6689 -48.998 -125.002l-74 -98c-12 -16 -18 -33 -18 -51v-21h-130v30c0 36.667 12.667 71.334 38 104.001l74 95c19.333 24.667 29 47 29 67c0 24 -7.33301 43.667 -22 59s-34.334 23 -59.001 23c-25.333 0 -45 -7.83301 -59 -23.5
s-21 -35.5 -21 -59.5h-130c0 60.667 20.667 109.667 62 147c38.667 35.333 88 53 148 53c59.333 0 108.666 -17.333 147.999 -52c42 -37.333 63 -86.666 63 -147.999zM350.002 -0.00195312h-138v133h138v-133z" />
    <glyph glyph-name="at" unicode="@" horiz-adv-x="758" 
d="M700 -3l-121.003 3v46c-32 -34.667 -72 -52 -120 -52c-52.667 0 -94.667 16.667 -126 50c-20.667 22.667 -34.334 52 -41.001 88c-4 21.333 -6 54.333 -6 99c0 44 2 76.667 6 98c6 35.333 19.333 64.333 40 87c30.667 34 72.667 51 126 51c48.667 0 88 -16.333 118 -49
v45c0 44.667 -11.667 78.667 -35 102s-56.666 35 -99.999 35h-124c-43.333 0 -76.666 -11.667 -99.999 -35s-35 -57.333 -35 -102v-289c0 -24.667 3.16699 -43.667 9.5 -57s17.833 -27.333 34.5 -42l-90 -90c-29.333 26.667 -49.666 52 -60.999 76
c-12 26.667 -18 62 -18 106v299c0 84.667 20.5 147.5 61.5 188.5s103.833 61.5 188.5 61.5h144c84.667 0 147.334 -20.333 188.001 -61s61 -103.667 61 -189v-469zM575.997 231c0 85.333 -27.667 128 -83 128c-54.667 0 -82 -42.667 -82 -128c0 -86 27.333 -129 82 -129
c55.333 0 83 43 83 129z" />
    <glyph glyph-name="A" unicode="A" horiz-adv-x="638" 
d="M633 0h-145l-42 126h-253l-43 -126h-145l259 712h109zM409 243l-87 259l-90 -259h177z" />
    <glyph glyph-name="B" unicode="B" horiz-adv-x="658" 
d="M599 205c0 -64.667 -20 -114.999 -60 -150.999s-92.667 -54 -158 -54h-298v712h286c68.667 0 122.5 -18 161.5 -54s58.5 -84.667 58.5 -146c0 -36 -10 -68.333 -30 -97c-16.667 -22.667 -36 -39.334 -58 -50.001c65.333 -30.667 98 -84 98 -160zM450 506.001
c0 24.667 -8 44.5 -24 59.5s-38.667 22.5 -68 22.5h-136v-164h136c29.333 0 52 7.5 68 22.5s24 34.833 24 59.5zM460 212.001c0 25.333 -8 46.167 -24 62.5s-39 24.5 -69 24.5h-145v-175h145c30 0 53 8.33301 69 25s24 37.667 24 63z" />
    <glyph glyph-name="C" unicode="C" horiz-adv-x="620" 
d="M583 219c-12 -72.667 -42.333 -128.666 -91 -167.999c-46 -38 -103 -57 -171 -57c-76 0 -140 26 -192 78c-32 32 -52.667 73 -62 123c-5.33301 29.333 -8 83 -8 161s2.66699 131.667 8 161c9.33301 50 30 91 62 123c52 52 116 78 192 78
c68.667 0 126.5 -19.333 173.5 -58s76.5 -94.334 88.5 -167.001h-141c-16.667 67.333 -56.667 101 -120 101c-42 0 -74.333 -15.667 -97 -47c-18 -25.333 -27 -89 -27 -191c0 -55.333 0.666992 -90 2 -104c4.66699 -44.667 15.667 -77 33 -97c22 -24.667 51.667 -37 89 -37
c63.333 0 103.333 33.667 120 101h141z" />
    <glyph glyph-name="D" unicode="D" horiz-adv-x="659" 
d="M600 359c0 -79.333 -2 -131.333 -6 -156c-8.66699 -54.667 -30.667 -99.667 -66 -135c-45.333 -45.333 -108 -68 -188 -68h-257v712h257c80 0 142.667 -22.667 188 -68c35.333 -35.333 57.333 -79.333 66 -132c4 -24 6 -75 6 -153zM461 359
c0 57.333 -1.66699 97.6689 -5 121.002c-4 27.333 -12.333 48.666 -25 63.999c-24 29.333 -58.667 44 -104 44h-105v-464h105c45.333 0 80 14.667 104 44c12.667 15.333 21 37.666 25 66.999c3.33301 24.667 5 66 5 124z" />
    <glyph glyph-name="E" unicode="E" horiz-adv-x="605" 
d="M552 0h-469v712h469v-124h-330v-167h281v-124h-281v-173h330v-124z" />
    <glyph glyph-name="F" unicode="F" horiz-adv-x="590" 
d="M552 588h-330v-175h281v-124h-281v-289h-139v712h469v-124z" />
    <glyph glyph-name="G" unicode="G" horiz-adv-x="648" 
d="M590 292c0 -97.333 -22.665 -169.667 -67.998 -217c-52 -54 -119 -81 -201 -81c-76 0 -140 26 -192 78c-32 32 -52.667 73 -62 123c-5.33301 29.333 -8 83 -8 161s2.66699 131.667 8 161c9.33301 50 30 91 62 123c52 52 116 78 192 78c77.333 0 140.333 -23 189 -69
c42 -40.667 68.333 -93.667 79 -159h-140c-16.667 69.333 -59.334 104 -128.001 104c-36.667 0 -66.334 -12.667 -89.001 -38c-17.333 -20 -28 -52 -32 -96c-1.33301 -12 -2 -46.667 -2 -104s0.666992 -92 2 -104c4 -44.667 14.667 -77 32 -97c22 -24.667 51.667 -37 89 -37
c42 0 75 13.333 99 40c21.333 23.333 32 55 32 95v27h-131v116h269v-104z" />
    <glyph glyph-name="H" unicode="H" horiz-adv-x="685" 
d="M602 0h-139v298h-241v-298h-139v712h139v-291h241v291h139v-712z" />
    <glyph glyph-name="I" unicode="I" horiz-adv-x="305" 
d="M222 0h-139v712h139v-712z" />
    <glyph glyph-name="J" unicode="J" horiz-adv-x="511" 
d="M437 234c0 -75.333 -25.333 -135 -76 -179c-46.667 -40.667 -105 -61 -175 -61c-73.333 0 -134.333 24.333 -183 73l92 91c26.667 -26.667 57 -40 91 -40c74.667 0 112 40.667 112 122v472h139v-478z" />
    <glyph glyph-name="K" unicode="K" horiz-adv-x="665" 
d="M659 0h-162l-183 324l-92 -110v-214h-139v712h139v-310l251 310h169l-236 -283z" />
    <glyph glyph-name="L" unicode="L" horiz-adv-x="575" 
d="M545 0h-462v712h139v-588h323v-124z" />
    <glyph glyph-name="M" unicode="M" horiz-adv-x="811" 
d="M728 0h-139v415l-136 -270h-94l-137 270v-415h-139v712h137l186 -385l185 385h137v-712z" />
    <glyph glyph-name="N" unicode="N" horiz-adv-x="711" 
d="M628 0h-124l-282 437v-437h-139v712h124l282 -436v436h139v-712z" />
    <glyph glyph-name="O" unicode="O" horiz-adv-x="644" 
d="M585 356c0 -77.333 -3 -131 -9 -161c-8.66699 -49.333 -29.334 -90.333 -62.001 -123c-52 -52 -116 -78 -192 -78c-76.667 0 -141 26 -193 78c-32 32 -52.667 73 -62 123c-5.33301 29.333 -8 83 -8 161s2.66699 131.667 8 161c9.33301 50 30 91 62 123
c52 52 116.333 78 193 78c76 0 140 -26 192 -78c32.667 -32.667 53.334 -73.667 62.001 -123c6 -30 9 -83.667 9 -161zM446 356c0 54.667 -0.665039 89.333 -1.99805 104c-4 44 -15 76 -33 96c-22.667 25.333 -52.334 38 -89.001 38c-37.333 0 -67.333 -12.667 -90 -38
c-17.333 -20 -28 -52 -32 -96c-1.33301 -12 -2 -46.667 -2 -104s0.666992 -92 2 -104c4 -44 14.667 -76 32 -96c22.667 -25.333 52.667 -38 90 -38c41.333 0 73.666 16 96.999 48c18 24.667 27 88 27 190z" />
    <glyph glyph-name="P" unicode="P" horiz-adv-x="628" 
d="M594 490c0 -62.667 -20.667 -114.667 -62 -156c-44 -44 -101.667 -66 -173 -66h-137v-268h-139v712h276c71.333 0 129 -22 173 -66c41.333 -41.333 62 -93.333 62 -156zM455 490c0 29.333 -9.33301 53 -28 71s-43.667 27 -75 27h-130v-195h130
c31.333 0 56.333 8.83301 75 26.5s28 41.167 28 70.5z" />
    <glyph glyph-name="Q" unicode="Q" horiz-adv-x="643" 
d="M602 43l-73.001 -73l-63 63c-40 -26 -88 -39 -144 -39c-76.667 0 -141 26 -193 78c-32 32 -52.667 73 -62 123c-5.33301 29.333 -8 83 -8 161s2.66699 131.667 8 161c9.33301 50 30 91 62 123c52 52 116.333 78 193 78c76 0 140 -26 192 -78
c32.667 -32.667 53.334 -73.667 62.001 -123c6 -30 9 -83.667 9 -161c0 -68 -1.66699 -115 -5 -141c-6 -44.667 -19 -81.667 -39 -111zM445.999 356c0 54.667 -0.666016 89.333 -1.99902 104c-4 44 -15 76 -33 96c-22.667 25.333 -52.334 38 -89.001 38
c-37.333 0 -67.333 -12.667 -90 -38c-17.333 -20 -28 -52 -32 -96c-1.33301 -12 -2 -46.667 -2 -104s0.666992 -92 2 -104c4 -44 14.667 -76 32 -96c22.667 -25.333 52.667 -38 90 -38c18 0 33.333 4.33301 46 13l-62 61l74 73l53 -53c8.66699 24.667 13 72.667 13 144z" />
    <glyph glyph-name="R" unicode="R" horiz-adv-x="654" 
d="M622 0h-161.002l-139 284h-100v-284h-139v712h279c70.667 0 127.334 -21.333 170.001 -64c40.667 -40.667 61 -92 61 -154c0 -47.333 -13 -88 -39 -122c-23.333 -30 -53.666 -51.667 -90.999 -65zM453.998 494c0 28 -9.33301 50.667 -28 68s-43 26 -73 26h-131v-188h131
c30 0 54.333 8.66699 73 26s28 40 28 68z" />
    <glyph glyph-name="S" unicode="S" horiz-adv-x="591" 
d="M543 210c0 -67.333 -24.832 -120.167 -74.499 -158.5s-112.834 -57.5 -189.501 -57.5c-111.333 0 -198 31.333 -260 94l90 90c40 -40 97.333 -60 172 -60c84 0 126 29.333 126 88c0 26.667 -7 46.5 -21 59.5s-35.333 21.5 -64 25.5l-86 12
c-126 17.333 -189 83.666 -189 198.999c0 64.667 22.333 116.834 67 156.501s105 59.5 181 59.5c96 0 172.667 -27.667 230 -83l-88 -87c-34 32.667 -82.667 49 -146 49c-35.333 0 -62.5 -8.5 -81.5 -25.5s-28.5 -38.5 -28.5 -64.5c0 -20.667 7.5 -38 22.5 -52
s36.5 -23 64.5 -27l84 -12c60.667 -8.66699 106 -27 136 -55c36.667 -34.667 55 -85 55 -151z" />
    <glyph glyph-name="T" unicode="T" horiz-adv-x="571" 
d="M541 588h-186v-588h-139v588h-186v124h511v-124z" />
    <glyph glyph-name="U" unicode="U" horiz-adv-x="668" 
d="M596 244c0 -74 -25 -134.167 -75 -180.5s-112.333 -69.5 -187 -69.5s-137 23.167 -187 69.5s-75 106.5 -75 180.5v468h139v-463c0 -40.667 11 -72.667 33 -96s52 -35 90 -35s68.167 11.667 90.5 35s33.5 55.333 33.5 96v463h138v-468z" />
    <glyph glyph-name="V" unicode="V" horiz-adv-x="581" 
d="M578 712l-236 -712h-104l-235 712h144l143 -464l143 464h145z" />
    <glyph glyph-name="W" unicode="W" horiz-adv-x="887" 
d="M881 712l-191 -712h-116l-131 432l-131 -432h-116l-190 712h145l110 -449l130 449h104l130 -449l111 449h145z" />
    <glyph glyph-name="X" unicode="X" horiz-adv-x="603" 
d="M598 0h-159l-138 248l-137 -248h-159l221 365l-207 347h158l124 -230l125 230h157l-207 -347z" />
    <glyph glyph-name="Y" unicode="Y" horiz-adv-x="572" 
d="M569 712l-214 -420v-292h-138v292l-214 420h151l133 -287l131 287h151z" />
    <glyph glyph-name="Z" unicode="Z" horiz-adv-x="548" 
d="M508 0h-468v112l304 476h-291v124h455v-110l-305 -478h305v-124z" />
    <glyph glyph-name="bracketleft" unicode="[" horiz-adv-x="378" 
d="M337 -74h-257v860h257v-117h-127v-626h127v-117z" />
    <glyph glyph-name="backslash" unicode="\" horiz-adv-x="403" 
d="M403 -74h-122l-281 847h122z" />
    <glyph glyph-name="bracketright" unicode="]" horiz-adv-x="378" 
d="M299 -74h-257v116h127v628h-127v116h257v-860z" />
    <glyph glyph-name="asciicircum" unicode="^" horiz-adv-x="602" 
d="M539 389h-136l-102 188l-102 -188h-136l178 330h120z" />
    <glyph glyph-name="underscore" unicode="_" horiz-adv-x="602" 
d="M602 -178h-602v87h602v-87z" />
    <glyph glyph-name="grave" unicode="`" horiz-adv-x="500" 
d="M305 604h-87l-114 170h137z" />
    <glyph glyph-name="a" unicode="a" horiz-adv-x="534" 
d="M467 0h-127.001v45c-33.333 -33.333 -76 -50 -128 -50c-58.667 0 -102.667 15 -132 45s-44 69.333 -44 118c0 44 15.167 80.167 45.5 108.5s74.5 42.5 132.5 42.5h123v26c0 54.667 -32.333 82 -97 82c-42 0 -75.333 -14.333 -100 -43l-83 81
c24.667 27.333 51.667 46.333 81 57c26.667 10 62.334 15 107.001 15c148 0 222 -61.333 222 -184v-343zM336.999 192l-0.000976562 28h-103c-48.667 0 -73 -19.667 -73 -59c0 -40 25 -60 75 -60c44.667 0 74.334 11 89.001 33c8 12 12 31.333 12 58z" />
    <glyph glyph-name="b" unicode="b" horiz-adv-x="560" 
d="M509 261c0 -53.333 -2.33398 -93.334 -7.00098 -120.001c-7.33301 -43.333 -22.666 -76.666 -45.999 -99.999c-31.333 -31.333 -73.666 -47 -126.999 -47s-96.666 18.333 -129.999 55v-49h-126v712h130v-237c31.333 34.667 73.333 52 126 52
c53.333 0 95.666 -15.667 126.999 -47c23.333 -23.333 38.666 -56.666 45.999 -99.999c4.66699 -26.667 7 -66.334 7 -119.001zM378.999 260.999c0 46 -3.66699 79 -11 99c-13.333 33.333 -39 50 -77 50s-63.667 -16.667 -77 -50c-7.33301 -20 -11 -53 -11 -99
s3.66699 -79 11 -99c13.333 -34 39 -51 77 -51s63.667 17 77 51c7.33301 20 11 53 11 99z" />
    <glyph glyph-name="c" unicode="c" horiz-adv-x="480" 
d="M452 65c-45.333 -47.333 -102.667 -71.001 -172 -71.001c-63.333 0 -115 18 -155 54c-52 46.667 -78 117.667 -78 213s26 166 78 212c40 36 91.667 54 155 54c70 0 127.333 -23.333 172 -70l-88 -88c-25.333 27.333 -53.333 41 -84 41s-55.5 -11.667 -74.5 -35
s-28.5 -61.333 -28.5 -114c0 -53.333 9.5 -91.666 28.5 -114.999s43.833 -35 74.5 -35s58.667 13.667 84 41z" />
    <glyph glyph-name="d" unicode="d" horiz-adv-x="561" 
d="M488 0l-126.998 0.000976562v49c-32.667 -36.667 -75.667 -55 -129 -55c-54 0 -96.667 15.667 -128 47c-23.333 23.333 -38.666 56.666 -45.999 99.999c-4.66699 26.667 -7 66.667 -7 120c0 52.667 2.33301 92.334 7 119.001c7.33301 43.333 22.666 76.666 45.999 99.999
c31.333 31.333 73.666 47 126.999 47s95.666 -17.333 126.999 -52v237h130v-712zM358.002 261.001c0 49.333 -5 84.667 -15 106c-13.333 28.667 -38 43 -74 43c-38 0 -63.667 -16.667 -77 -50c-7.33301 -20 -11 -53 -11 -99s3.66699 -79 11 -99c13.333 -34 39 -51 77 -51
c36 0 60.667 14.333 74 43c10 22 15 57.667 15 107z" />
    <glyph glyph-name="e" unicode="e" horiz-adv-x="548" 
d="M501 220l-326 -0.000976562c0 -34.667 10.167 -62.667 30.5 -84s48.166 -32 83.499 -32c46 0 85.333 16.333 118 49l79 -77c-28.667 -28.667 -56.667 -49 -84 -61c-31.333 -14 -69.333 -21 -114 -21c-160.667 0 -241 89 -241 267c0 83.333 21 149 63 197
c40.667 46 95.334 69 164.001 69c70.667 0 126.667 -23.667 168 -71c39.333 -45.333 59 -104.666 59 -177.999v-58zM373 308.999c-0.666992 21.333 -4.66699 40 -12 56c-16 36 -45 54 -87 54s-71 -18 -87 -54c-7.33301 -16 -11.333 -34.667 -12 -56h198z" />
    <glyph glyph-name="f" unicode="f" horiz-adv-x="342" 
d="M315 407h-96v-407h-130v407h-54v99h54v65c0 40.667 12 74.667 36 102c28 31.333 66.667 47 116 47h74v-110h-51c-30 0 -45 -15.667 -45 -47v-57h96v-99z" />
    <glyph glyph-name="g" unicode="g" horiz-adv-x="555" 
d="M482 19c0 -63.333 -20.835 -115.167 -62.502 -155.5s-97.167 -60.5 -166.5 -60.5c-78.667 0 -141.667 22.667 -189 68l81 82c27.333 -26.667 61.333 -40 102 -40c36 0 63.333 11.333 82 34c15.333 19.333 23 44 23 74v53c-31.333 -34.667 -72.666 -52 -123.999 -52
c-52 0 -93.333 15.333 -124 46c-22.667 22.667 -37.667 52 -45 88c-5.33301 26 -8 65.667 -8 119s2.66699 93 8 119c7.33301 35.333 22.333 64.333 45 87c30.667 30.667 72.334 46 125.001 46c52 0 94.333 -18.333 127 -55v49h126v-502zM351.998 274.999
c0 40.667 -4.33301 70.667 -13 90c-12.667 30 -37 45 -73 45c-34.667 0 -58.334 -14 -71.001 -42c-9.33301 -19.333 -14 -50.333 -14 -93s4.66699 -74 14 -94c12.667 -28 36.334 -42 71.001 -42c36 0 60.333 15 73 45c8.66699 20 13 50.333 13 91z" />
    <glyph glyph-name="h" unicode="h" horiz-adv-x="569" 
d="M502 0h-130v318c0 32 -9 56 -27 72c-15.333 13.333 -34.666 20 -57.999 20s-42.333 -6.66699 -57 -20c-18 -16.667 -27 -40.667 -27 -72v-318h-130v712h130v-239c35.333 36 77 54 125 54c55.333 0 98.666 -18 129.999 -54c29.333 -34 44 -79.333 44 -136v-337z" />
    <glyph glyph-name="i" unicode="i" horiz-adv-x="275" 
d="M204 610h-133v106h133v-106zM203 0h-130v521h130v-521z" />
    <glyph glyph-name="j" unicode="j" horiz-adv-x="275" 
d="M204 610h-133v106h133v-106zM203 -46c0 -40.667 -12 -74.667 -36 -102c-27.333 -31.333 -66 -47 -116 -47h-74v110h50c30.667 0 46 15.667 46 47v559h130v-567z" />
    <glyph glyph-name="k" unicode="k" horiz-adv-x="559" 
d="M547 0h-161l-128 217l-55 -62v-155h-130v712h130v-404l173 213h157l-186 -210z" />
    <glyph glyph-name="l" unicode="l" horiz-adv-x="325" 
d="M294 0h-74c-50 0 -88.667 15.667 -116 47c-24 27.333 -36 61.333 -36 102v563h130v-555c0 -31.333 15.333 -47 46 -47h50v-110z" />
    <glyph glyph-name="m" unicode="m" horiz-adv-x="876" 
d="M809 0l-130.004 -0.000976562v315c0 32.667 -9.33301 57.334 -28 74.001c-15.333 14 -34.666 21 -57.999 21s-42.666 -6.66699 -57.999 -20c-19.333 -16.667 -29 -40.667 -29 -72v-318h-130v315c0 32.667 -9.33301 57.334 -28 74.001c-15.333 14 -34.666 21 -57.999 21
c-24 0 -43.667 -7 -59 -21c-18.667 -16.667 -28 -41.334 -28 -74.001v-315h-130v521h127v-48c34.667 36 78 54 130 54c60 0 106 -22 138 -66c42 44 94 66 156 66c54.667 0 97.334 -15.333 128.001 -46c38 -38 57 -87.333 57 -148v-333z" />
    <glyph glyph-name="n" unicode="n" horiz-adv-x="573" 
d="M506 0l-130.001 -0.000976562v315c0 32.667 -9.33301 57.334 -28 74.001c-15.333 14 -34.666 21 -57.999 21c-24 0 -43.667 -7 -59 -21c-18.667 -16.667 -28 -41.334 -28 -74.001v-315h-130v521h127v-48c34 36 77.333 54 130 54c51.333 0 92.333 -15.333 123 -46
c35.333 -35.333 53 -84.666 53 -147.999v-333z" />
    <glyph glyph-name="o" unicode="o" 
d="M492 261c0 -50 -3.99707 -89.667 -11.9971 -119c-8.66699 -32.667 -24.334 -60.667 -47.001 -84c-40.667 -42.667 -94.667 -64 -162 -64c-66.667 0 -120.334 21.333 -161.001 64c-22.667 23.333 -38.334 51.333 -47.001 84c-8 29.333 -12 69 -12 119
c0 93.333 20 161 60 203s93.333 63 160 63c67.333 0 121 -21 161 -63s60 -109.667 60 -203zM362.003 261c0 64 -10 106 -30 126c-15.333 15.333 -35.666 23 -60.999 23c-24.667 0 -44.667 -7.66699 -60 -23c-20 -20 -30 -62 -30 -126c0 -64.667 10 -107 30 -127
c15.333 -15.333 35.333 -23 60 -23c25.333 0 45.666 7.66699 60.999 23c20 20 30 62.333 30 127z" />
    <glyph glyph-name="p" unicode="p" horiz-adv-x="560" 
d="M509 261c0 -53.333 -2.33203 -93.334 -6.99902 -120.001c-7.33301 -43.333 -22.666 -76.666 -45.999 -99.999c-31.333 -31.333 -73.666 -47 -126.999 -47c-52.667 0 -94.667 17.333 -126 52v-237h-130v712h126v-49c33.333 36.667 76.666 55 129.999 55
s95.666 -15.667 126.999 -47c23.333 -23.333 38.666 -56.666 45.999 -99.999c4.66699 -26.667 7 -66.334 7 -119.001zM379.001 260.999c0 46 -3.66699 79 -11 99c-13.333 33.333 -39 50 -77 50s-63.667 -16.667 -77 -50c-7.33301 -20 -11 -53 -11 -99s3.66699 -79 11 -99
c13.333 -34 39 -51 77 -51s63.667 17 77 51c7.33301 20 11 53 11 99z" />
    <glyph glyph-name="q" unicode="q" horiz-adv-x="561" 
d="M488 -191l-130.002 0.000976562v237c-31.333 -34.667 -73.666 -52 -126.999 -52s-95.666 15.667 -126.999 47c-23.333 23.333 -38.666 56.666 -45.999 99.999c-4.66699 26.667 -7 66.667 -7 120c0 52.667 2.33301 92.334 7 119.001
c7.33301 43.333 22.666 76.666 45.999 99.999c31.333 31.333 74 47 128 47c53.333 0 96.333 -18.333 129 -55v49h127v-712zM357.998 261.001c0 49.333 -5 84.667 -15 106c-13.333 28.667 -38 43 -74 43c-38 0 -63.667 -16.667 -77 -50c-7.33301 -20 -11 -53 -11 -99
s3.66699 -79 11 -99c13.333 -34 39 -51 77 -51c36 0 60.667 14.333 74 43c10 22 15 57.667 15 107z" />
    <glyph glyph-name="r" unicode="r" horiz-adv-x="455" 
d="M454 478l-98 -99c-20.667 20.667 -43.667 31 -69 31c-22 0 -41 -7.66699 -57 -23c-18 -18 -27 -42.333 -27 -73v-314h-130v521h127v-50c31.333 37.333 75 56 131 56c49.333 0 90.333 -16.333 123 -49z" />
    <glyph glyph-name="s" unicode="s" horiz-adv-x="501" 
d="M465 164c0 -55.333 -21.3311 -98 -63.998 -128c-40 -28 -92.333 -42 -157 -42c-48.667 0 -88.334 4.33301 -119.001 13c-38.667 11.333 -73 32 -103 62l85 85c32.667 -32.667 79 -49 139 -49c61.333 0 92 18 92 54c0 28.667 -18.333 44.667 -55 48l-82 8
c-101.333 10 -152 58.667 -152 146c0 52 20.333 93.333 61 124c37.333 28 84 42 140 42c89.333 0 155.666 -20.333 198.999 -61l-80 -81c-26 23.333 -66.333 35 -121 35c-49.333 0 -74 -16.667 -74 -50c0 -26.667 18 -41.667 54 -45l82 -8c103.333 -10 155 -61 155 -153z
" />
    <glyph glyph-name="t" unicode="t" horiz-adv-x="352" 
d="M307 0h-71.001c-49.333 0 -87.666 15.667 -114.999 47c-24 27.333 -36 61.333 -36 102v258h-55v99h55v154h130v-154h92v-99h-92v-250c0 -31.333 15 -47 45 -47h47v-110z" />
    <glyph glyph-name="u" unicode="u" horiz-adv-x="573" 
d="M500 0l-126.999 0.000976562v48c-34 -36 -77.333 -54 -130 -54c-51.333 0 -92.333 15.333 -123 46c-35.333 35.333 -53 84.666 -53 147.999v333h130v-315c0 -32.667 9.33301 -57.334 28 -74.001c15.333 -14 34.666 -21 57.999 -21c24 0 43.667 7 59 21
c18.667 16.667 28 41.334 28 74.001v315h130v-521z" />
    <glyph glyph-name="v" unicode="v" horiz-adv-x="493" 
d="M489 521l-191 -521h-102l-192 521h137l106 -322l105 322h137z" />
    <glyph glyph-name="w" unicode="w" horiz-adv-x="759" 
d="M755 521l-159 -521h-107l-109 327l-109 -327h-107l-160 521h138l84 -322l106 322h95l107 -322l84 322h137z" />
    <glyph glyph-name="x" unicode="x" horiz-adv-x="527" 
d="M515 0h-156l-96 156l-95 -156h-156l180 266l-173 255h156l88 -149l89 149h156l-173 -255z" />
    <glyph glyph-name="y" unicode="y" horiz-adv-x="494" 
d="M490 521l-223 -605.001c-10.667 -29.333 -23.667 -51.666 -39 -66.999c-26.667 -26.667 -64 -40 -112 -40h-51v117h30c19.333 0 33.5 3.33301 42.5 10s16.5 19 22.5 37l22 64l-178 484h137l108 -322l104 322h137z" />
    <glyph glyph-name="z" unicode="z" horiz-adv-x="478" 
d="M434 0h-397v99l231 305h-218v117h384v-99l-234 -305h234v-117z" />
    <glyph glyph-name="braceleft" unicode="{" horiz-adv-x="457" 
d="M414 -74l-102.001 -0.000976562c-50 0 -87.333 12.333 -112 37c-28 28 -42 65 -42 111v145c0 28.667 -6 49 -18 61s-29 18 -51 18h-46v116h46c22 0 39 6 51 18s18 32.333 18 61v145c0 46 14 83 42 111c24.667 24.667 62 37 112 37h102v-117h-53
c-29.333 0 -48.333 -4.66699 -57 -14c-10.667 -11.333 -16 -32.666 -16 -63.999v-135c0 -48.667 -23 -82 -69 -100c46 -18 69 -51.333 69 -100v-135c0 -43.333 11.667 -68.333 35 -75c8.66699 -2 21.334 -3 38.001 -3h53v-117z" />
    <glyph glyph-name="bar" unicode="|" horiz-adv-x="350" 
d="M240 -74h-130v860h130v-860z" />
    <glyph glyph-name="braceright" unicode="}" horiz-adv-x="457" 
d="M414 298l-45.999 0.000976562c-22 0 -39 -6 -51 -18s-18 -32.333 -18 -61v-145c0 -46 -14 -83 -42 -111c-24.667 -24.667 -62 -37 -112 -37h-102v117h53c29.333 0 48.833 5.16699 58.5 15.5s14.5 31.166 14.5 62.499v135c0 48.667 23 82 69 100
c-46 18 -69 51.333 -69 100v135c0 43.333 -11.667 68.333 -35 75c-8.66699 2 -21.334 3 -38.001 3h-53v117h102c50 0 87.333 -12.333 112 -37c28 -28 42 -65 42 -111v-145c0 -28.667 6 -49 18 -61s29 -18 51 -18h46v-116z" />
    <glyph glyph-name="asciitilde" unicode="~" horiz-adv-x="606" 
d="M569 281c-31.333 -31.333 -59.167 -53.5 -83.5 -66.5s-51.5 -19.5 -81.5 -19.5c-35.333 0 -74.333 11.333 -117 34c-30 16 -57.333 24 -82 24c-29.333 0 -58 -14 -86 -42l-82 82c32 32 59.833 54.333 83.5 67s50.5 19 80.5 19c35.333 0 74.333 -11.333 117 -34
c30 -16 57 -24 81 -24c30 0 59 14 87 42z" />
    <glyph glyph-name="nonbreakingspace" unicode="&#xa0;" horiz-adv-x="232" 
 />
    <glyph glyph-name="exclamdown" unicode="&#xa1;" horiz-adv-x="347" 
d="M224 388h-137v133h137v-133zM236 -191h-161l32 489h97z" />
    <glyph glyph-name="cent" unicode="&#xa2;" horiz-adv-x="499" 
d="M469 180c-38.667 -40.667 -84 -65.667 -136 -75v-105h-101v105c-55.333 11.333 -99.333 38.333 -132 81c-35.333 46 -53 106 -53 180s17.667 134 53 180c32.667 42.667 76.667 69.667 132 81v85h101v-85c52 -9.33301 97.333 -34.333 136 -75l-86 -84
c-20.667 21.333 -42 35 -64 41v-286c22 6 43.333 19.667 64 41zM246 225v281.999c-14.667 -4 -27.334 -12.667 -38.001 -26c-20.667 -25.333 -31 -63.666 -31 -114.999c0 -50.667 10.333 -89 31 -115c10.667 -13.333 23.334 -22 38.001 -26z" />
    <glyph glyph-name="sterling" unicode="&#xa3;" horiz-adv-x="579" 
d="M534 0h-433.001v297h-61v100h61v81c0 75.333 25.333 135 76 179c46.667 40.667 105 61 175 61c72.667 0 133.334 -24.333 182.001 -73l-91 -91c-26.667 26.667 -57 40 -91 40c-75.333 0 -113 -40.667 -113 -122v-75h113v-100h-113v-173h295v-124z" />
    <glyph glyph-name="currency" unicode="&#xa4;" horiz-adv-x="669" 
d="M610 96l-85 -86l-74 73c-36 -21.333 -75 -32 -117 -32c-41.333 0 -80 10.667 -116 32l-74 -73l-86 86l74 73c-22 37.333 -33 76.333 -33 117s11 79.667 33 117l-74 73l86 86l74 -73c36 21.333 74.667 32 116 32c42 0 81 -10.667 117 -32l74 73l85 -86l-73 -73
c21.333 -36 32 -75 32 -117s-10.667 -81 -32 -117zM452 286c0 32.667 -11.5 60.334 -34.5 83.001s-50.833 34 -83.5 34s-60.334 -11.333 -83.001 -34s-34 -50.334 -34 -83.001s11.333 -60.334 34 -83.001s50.334 -34 83.001 -34s60.5 11.333 83.5 34
s34.5 50.334 34.5 83.001z" />
    <glyph glyph-name="yen" unicode="&#xa5;" horiz-adv-x="571" 
d="M568 712l-136 -270h74v-100h-125l-26 -50v-51h151v-100h-151v-141h-138v141h-152v100h152v51l-26 50h-126v100h75l-137 270h151l132 -288l132 288h150z" />
    <glyph glyph-name="brokenbar" unicode="&#xa6;" horiz-adv-x="353" 
d="M240 436h-130v350h130v-350zM240 -74h-130v350h130v-350z" />
    <glyph glyph-name="section" unicode="&#xa7;" horiz-adv-x="531" 
d="M473 274c0 -33.333 -10.332 -64.666 -30.999 -93.999c-16.667 -24 -36.334 -42.333 -59.001 -55c54 -26.667 81 -73 81 -139c0 -58 -20.667 -104 -62 -138c-36.667 -30 -82 -45 -136 -45s-99 13.667 -135 41c-42 32 -63.333 77.667 -64 137h125c2 -42 26.667 -63 74 -63
c48.667 0 73 21.333 73 64c0 33.333 -23.333 58 -70 74l-62 21c-50 16.667 -86.333 38.667 -109 66c-24.667 30 -37 70.667 -37 122c0 34 10.333 65.333 31 94c16.667 24 36.667 42.333 60 55c-50.667 26.667 -76 70.334 -76 131.001c0 48.667 15.667 88.667 47 120
c35.333 35.333 83.666 53 144.999 53c62.667 0 111 -16.667 145 -50c30.667 -30.667 46.334 -71.334 47.001 -122.001h-122c-2 40.667 -25.333 61 -70 61c-46.667 0 -70 -19.667 -70 -59c0 -29.333 22.333 -51.333 67 -66l62 -20c50 -16 86.333 -38 109 -66
c24.667 -30.667 37 -71.334 37 -122.001zM348.001 269c0 29.333 -8.33203 52 -24.999 68c-14.667 14 -33.334 21 -56.001 21c-24 0 -43 -7 -57 -21c-16 -16 -24 -38.667 -24 -68c0 -28.667 8 -51 24 -67c14 -14 33 -21 57 -21c23.333 0 42 7 56 21
c16.667 16.667 25 39 25 67z" />
    <glyph glyph-name="dieresis" unicode="&#xa8;" horiz-adv-x="500" 
d="M416 606h-111v125h111v-125zM195 606h-111v125h111v-125z" />
    <glyph glyph-name="copyright" unicode="&#xa9;" horiz-adv-x="844" 
d="M784 356c0 -100 -35.333 -185.333 -106 -256s-156 -106 -256 -106s-185.333 35.333 -256 106s-106 156 -106 256s35.333 185.333 106 256s156 106 256 106s185.333 -35.333 256 -106s106 -156 106 -256zM697 356c0 80 -26.333 146.833 -79 200.5s-118 80.5 -196 80.5
s-143.5 -26.833 -196.5 -80.5s-79.5 -120.5 -79.5 -200.5s26.5 -146.833 79.5 -200.5s118.5 -80.5 196.5 -80.5s143.333 26.833 196 80.5s79 120.5 79 200.5zM561 212c-38.667 -34.667 -82.667 -52 -132 -52c-52 0 -94.333 16.667 -127 50c-34.667 35.333 -52 84 -52 146
s17.333 111 52 147c32.667 33.333 75 50 127 50c47.333 0 91.333 -17.667 132 -53l-56 -56c-25.333 21.333 -50.666 32 -75.999 32c-62.667 0 -94 -40 -94 -120s31.333 -120 94 -120c25.333 0 50.666 10.667 75.999 32z" />
    <glyph glyph-name="ordfeminine" unicode="&#xaa;" horiz-adv-x="454" 
d="M392 296l-102.998 0.000976562v36c-26.667 -26.667 -60.334 -40 -101.001 -40c-45.333 0 -80 12.333 -104 37s-36 55.667 -36 93c0 35.333 11.667 63.666 35 84.999c25.333 24 61 36 107 36h97v20c0 43.333 -25.667 65 -77 65c-32.667 0 -59 -11.333 -79 -34l-67 65
c35.333 38.667 85.666 58 150.999 58c118 0 177 -49 177 -147v-274zM287.002 449.001v23h-81c-37.333 0 -56 -15.667 -56 -47c0 -30.667 19 -46 57 -46c28 0 48.333 5 61 15s19 28.333 19 55z" />
    <glyph glyph-name="guillemotleft" unicode="&#xab;" horiz-adv-x="628" 
d="M562 27l-250 248l250 248v-155l-96 -93l96 -93v-155zM283 27l-249 248l249 248v-155l-94 -93l94 -93v-155z" />
    <glyph glyph-name="logicalnot" unicode="&#xac;" 
d="M497 94h-121v145h-330v121h451v-266z" />
    <glyph glyph-name="minus" unicode="&#xad;" 
d="M493 225h-443v121h443v-121z" />
    <glyph glyph-name="minus" unicode="&#x2212;" 
d="M493 225h-443v121h443v-121z" />
    <glyph glyph-name="registered" unicode="&#xae;" horiz-adv-x="844" 
d="M784 356c0 -100 -35.333 -185.333 -106 -256s-156 -106 -256 -106s-185.333 35.333 -256 106s-106 156 -106 256s35.333 185.333 106 256s156 106 256 106s185.333 -35.333 256 -106s106 -156 106 -256zM698 356c0 80 -26.5 146.833 -79.5 200.5s-118.5 80.5 -196.5 80.5
s-143.5 -26.833 -196.5 -80.5s-79.5 -120.5 -79.5 -200.5s26.5 -146.833 79.5 -200.5s118.5 -80.5 196.5 -80.5s143.5 26.833 196.5 80.5s79.5 120.5 79.5 200.5zM585 164h-98l-70 149h-41v-149h-86v385h157c38 0 68.833 -11.833 92.5 -35.5s35.5 -52.167 35.5 -85.5
c0 -48.667 -23.667 -82.667 -71 -102zM489 428c0 14 -5 25.833 -15 35.5s-22.667 14.5 -38 14.5h-60v-100h60c15.333 0 28 4.83301 38 14.5s15 21.5 15 35.5z" />
    <glyph glyph-name="macron" unicode="&#xaf;" horiz-adv-x="500" 
d="M408 630h-316v87h316v-87z" />
    <glyph glyph-name="macron" unicode="&#x2c9;" horiz-adv-x="500" 
d="M408 630h-316v87h316v-87z" />
    <glyph glyph-name="degree" unicode="&#xb0;" horiz-adv-x="478" 
d="M423 542c0 -50.667 -17.833 -94 -53.5 -130s-79.167 -54 -130.5 -54c-50.667 0 -94 18 -130 54s-54 79.333 -54 130c0 51.333 18 95 54 131s79.333 54 130 54s94 -18 130 -54s54 -79.667 54 -131zM318 542c0 22.667 -7.83301 41.667 -23.5 57s-34.5 23 -56.5 23
s-40.5 -7.66699 -55.5 -23s-22.5 -34.333 -22.5 -57s7.66699 -41.667 23 -57s34 -23 56 -23s40.667 7.66699 56 23s23 34.333 23 57z" />
    <glyph glyph-name="plusminus" unicode="&#xb1;" 
d="M493 341h-160v-161h-122v161h-161v121h161v161h122v-161h160v-121zM493 0h-443v122h443v-122z" />
    <glyph glyph-name="twosuperior" unicode="&#xb2;" horiz-adv-x="358" 
d="M315 285h-272v85l156 171c14.667 16 22 31.667 22 47c0 28.667 -14 43 -42 43s-42 -14.667 -42 -44h-94c0 40 13.333 72 40 96c24.667 22 56.667 33 96 33c40 0 72.667 -11.5 98 -34.5s38 -54.167 38 -93.5c0 -32 -17.333 -66.667 -52 -104l-105 -114h157v-85z" />
    <glyph glyph-name="threesuperior" unicode="&#xb3;" horiz-adv-x="368" 
d="M325 412c0 -42 -14.001 -75 -42.001 -99c-26 -21.333 -59 -32 -99 -32c-39.333 0 -71.666 10.333 -96.999 31c-29.333 23.333 -44 57 -44 101h94c0 -32 15.667 -48 47 -48s47 16.667 47 50c0 32 -16.333 48 -49 48h-13v81h13c29.333 0 44 14.333 44 43
c0 29.333 -14 44 -42 44s-42 -14 -42 -42h-94c0 38.667 13 69.5 39 92.5s58.333 34.5 97 34.5c39.333 0 71.833 -11.833 97.5 -35.5s38.5 -53.834 38.5 -90.501c0 -38 -15 -66 -45 -84c33.333 -21.333 50 -52.666 50 -93.999z" />
    <glyph glyph-name="acute" unicode="&#xb4;" horiz-adv-x="500" 
d="M396 774l-114 -170h-87l64 170h137z" />
    <glyph glyph-name="mu" unicode="&#xb5;" horiz-adv-x="576" 
d="M503 0h-126.999v48c-34 -36 -77.333 -54 -130 -54c-18 0 -33.333 4.66699 -46 14v-199h-130v712h130v-315c0 -32.667 9.33301 -57.334 28 -74.001c15.333 -14 34.666 -21 57.999 -21c24 0 43.667 7 59 21c18.667 16.667 28 41.334 28 74.001v315h130v-521z" />
    <glyph glyph-name="mu" unicode="&#x3bc;" horiz-adv-x="576" 
d="M503 0h-126.999v48c-34 -36 -77.333 -54 -130 -54c-18 0 -33.333 4.66699 -46 14v-199h-130v712h130v-315c0 -32.667 9.33301 -57.334 28 -74.001c15.333 -14 34.666 -21 57.999 -21c24 0 43.667 7 59 21c18.667 16.667 28 41.334 28 74.001v315h130v-521z" />
    <glyph glyph-name="paragraph" unicode="&#xb6;" horiz-adv-x="668" 
d="M585 -191l-130.001 -0.000976562v779h-100v-779h-130v499c-50.667 0 -95 19.833 -133 59.5s-57 86.834 -57 141.501c0 64.667 21.333 115 64 151c40.667 34.667 96.334 52 167.001 52h319v-903z" />
    <glyph glyph-name="periodcentered" unicode="&#xb7;" horiz-adv-x="285" 
d="M217 212h-149v148h149v-148z" />
    <glyph glyph-name="periodcentered" unicode="&#x2219;" horiz-adv-x="285" 
d="M217 212h-149v148h149v-148z" />
    <glyph glyph-name="cedilla" unicode="&#xb8;" horiz-adv-x="500" 
d="M325 -60l-44 -146h-121l69 146h96z" />
    <glyph glyph-name="onesuperior" unicode="&#xb9;" horiz-adv-x="292" 
d="M223 285h-95v321l-90 -78v106l90 78h95v-427z" />
    <glyph glyph-name="ordmasculine" unicode="&#xba;" horiz-adv-x="462" 
d="M407 504c0 -74 -16.167 -127.833 -48.5 -161.5s-74.833 -50.5 -127.5 -50.5s-95.167 16.833 -127.5 50.5s-48.5 87.5 -48.5 161.5c0 74.667 16.167 128.834 48.5 162.501s74.833 50.5 127.5 50.5s95.167 -16.833 127.5 -50.5s48.5 -87.834 48.5 -162.501zM302 504
c0 52 -7.66699 85.667 -23 101c-12 12 -28 18 -48 18s-36 -6 -48 -18c-15.333 -15.333 -23 -49 -23 -101c0 -51.333 7.66699 -84.666 23 -99.999c12 -12 28 -18 48 -18s36 6 48 18c15.333 15.333 23 48.666 23 99.999z" />
    <glyph glyph-name="guillemotright" unicode="&#xbb;" horiz-adv-x="628" 
d="M595 275l-250 -248v155l94 93l-94 93v155zM316 275l-249 -248v155l95 93l-95 93v155z" />
    <glyph glyph-name="onequarter" unicode="&#xbc;" horiz-adv-x="836" 
d="M796 57h-33v-57h-90v57h-176v89l143 281h103l-144 -281h74v62h90v-62h33v-89zM625 712l-337 -712h-102l337 712h102zM223 285h-95v321l-90 -78v106l90 78h95v-427z" />
    <glyph glyph-name="onehalf" unicode="&#xbd;" horiz-adv-x="862" 
d="M819 0l-272 -0.000976562v85l156 171c15.333 16.667 23 32.334 23 47.001c0 28.667 -14.333 43 -43 43c-27.333 0 -41 -14.667 -41 -44h-95c0 40 13.333 72 40 96c24.667 22 56.667 33 96 33c40 0 72.667 -11.5 98 -34.5s38 -54.167 38 -93.5
c0 -32 -17.333 -66.667 -52 -104l-105 -114h157v-85zM620 711.999l-337 -712h-101l337 712h101zM223 284.999h-95v321l-90 -78v106l90 78h95v-427z" />
    <glyph glyph-name="threequarters" unicode="&#xbe;" horiz-adv-x="865" 
d="M825 57h-33v-57h-90v57h-176v89l143 281h103l-144 -281h74v62h90v-62h33v-89zM657 712l-337 -712h-102l337 712h102zM325 412c0 -42 -14.001 -75 -42.001 -99c-26 -21.333 -59 -32 -99 -32c-39.333 0 -71.666 10.333 -96.999 31c-29.333 23.333 -44 57 -44 101h94
c0 -32 15.667 -48 47 -48s47 16.667 47 50c0 32 -16.333 48 -49 48h-13v81h13c29.333 0 44 14.333 44 43c0 29.333 -14 44 -42 44s-42 -14 -42 -42h-94c0 38.667 13 69.5 39 92.5s58.333 34.5 97 34.5c39.333 0 71.833 -11.833 97.5 -35.5s38.5 -53.834 38.5 -90.501
c0 -38 -15 -66 -45 -84c33.333 -21.333 50 -52.666 50 -93.999z" />
    <glyph glyph-name="questiondown" unicode="&#xbf;" horiz-adv-x="523" 
d="M311 388h-138v133h138v-133zM457 4c0 -60.667 -20.166 -109.331 -60.499 -145.998s-90.5 -55 -150.5 -55c-58.667 0 -107.667 17.333 -147 52c-42 37.333 -63 86.666 -63 147.999c0 39.333 16.333 81 49 125l74 99c12 16 18 33 18 51v20h130v-30
c0 -36.667 -12.667 -71.334 -38 -104.001l-74 -95c-19.333 -24.667 -29 -47 -29 -67c0 -24 7.16699 -43.667 21.5 -59s33.833 -23 58.5 -23c25.333 0 45.166 8 59.499 24s21.5 36 21.5 60h130z" />
    <glyph glyph-name="Agrave" unicode="&#xc0;" horiz-adv-x="638" 
d="M633 0h-145l-42 126h-253l-43 -126h-145l259 712h109zM409 243l-87 259l-90 -259h177zM372 781h-87l-114 170h137z" />
    <glyph glyph-name="Aacute" unicode="&#xc1;" horiz-adv-x="638" 
d="M633 0h-145l-42 126h-253l-43 -126h-145l259 712h109zM409 243l-87 259l-90 -259h177zM463 951l-114 -170h-87l64 170h137z" />
    <glyph glyph-name="Acircumflex" unicode="&#xc2;" horiz-adv-x="638" 
d="M633 0h-145l-42 126h-253l-43 -126h-145l259 712h109zM409 243l-87 259l-90 -259h177zM501 781h-101l-83 91l-83 -91h-101l132 169h104z" />
    <glyph glyph-name="Atilde" unicode="&#xc3;" horiz-adv-x="638" 
d="M633 0h-145l-42 126h-253l-43 -126h-145l259 712h109zM409 243l-87 259l-90 -259h177zM497 851c-39.333 -39.333 -76.9971 -59 -112.997 -59c-24.667 0 -50.334 7.66699 -77.001 23c-20.667 12 -39.334 18 -56.001 18c-20 0 -39.667 -9.66699 -59 -29l-56 57
c39.333 39.333 76.666 59 111.999 59c26 0 51.667 -7.66699 77 -23c20 -12 38.333 -18 55 -18c20 0 39.667 9.66699 59 29z" />
    <glyph glyph-name="Adieresis" unicode="&#xc4;" horiz-adv-x="638" 
d="M633 0h-145l-42 126h-253l-43 -126h-145l259 712h109zM409 243l-87 259l-90 -259h177zM483 783h-111v125h111v-125zM262 783h-111v125h111v-125z" />
    <glyph glyph-name="Aring" unicode="&#xc5;" horiz-adv-x="638" 
d="M633 0h-145l-42 126h-253l-43 -126h-145l259 712h109zM409 243l-87 259l-90 -259h177zM448 884c0 -36 -12.833 -66.833 -38.5 -92.5s-56.5 -38.5 -92.5 -38.5s-66.833 12.833 -92.5 38.5s-38.5 56.5 -38.5 92.5s12.833 66.833 38.5 92.5s56.5 38.5 92.5 38.5
s66.833 -12.667 92.5 -38s38.5 -56.333 38.5 -93zM375 884c0 16 -5.66699 29.667 -17 41s-25 17 -41 17s-29.667 -5.66699 -41 -17s-17 -25 -17 -41s5.66699 -29.833 17 -41.5s25 -17.5 41 -17.5s29.667 5.83301 41 17.5s17 25.5 17 41.5z" />
    <glyph glyph-name="AE" unicode="&#xc6;" horiz-adv-x="979" 
d="M926 0h-468v156h-225l-81 -156h-149l372 712h551v-124h-330v-168h282v-124h-282v-172h330v-124zM458 273v315l-165 -315h165z" />
    <glyph glyph-name="Ccedilla" unicode="&#xc7;" horiz-adv-x="620" 
d="M583 219c-12 -72.667 -42.333 -128.666 -91 -167.999c-46 -38 -103 -57 -171 -57c-76 0 -140 26 -192 78c-32 32 -52.667 73 -62 123c-5.33301 29.333 -8 83 -8 161s2.66699 131.667 8 161c9.33301 50 30 91 62 123c52 52 116 78 192 78
c68.667 0 126.5 -19.333 173.5 -58s76.5 -94.334 88.5 -167.001h-141c-16.667 67.333 -56.667 101 -120 101c-42 0 -74.333 -15.667 -97 -47c-18 -25.333 -27 -89 -27 -191c0 -55.333 0.666992 -90 2 -104c4.66699 -44.667 15.667 -77 33 -97c22 -24.667 51.667 -37 89 -37
c63.333 0 103.333 33.667 120 101h141zM379 -59.999l-44 -146h-121l69 146h96z" />
    <glyph glyph-name="Egrave" unicode="&#xc8;" horiz-adv-x="605" 
d="M552 0h-469v712h469v-124h-330v-167h281v-124h-281v-173h330v-124zM365 781h-87l-114 170h137z" />
    <glyph glyph-name="Eacute" unicode="&#xc9;" horiz-adv-x="605" 
d="M552 0h-469v712h469v-124h-330v-167h281v-124h-281v-173h330v-124zM455 951l-114 -170h-87l64 170h137z" />
    <glyph glyph-name="Ecircumflex" unicode="&#xca;" horiz-adv-x="605" 
d="M552 0h-469v712h469v-124h-330v-167h281v-124h-281v-173h330v-124zM494 781h-101l-83 91l-83 -91h-101l132 169h104z" />
    <glyph glyph-name="Edieresis" unicode="&#xcb;" horiz-adv-x="605" 
d="M552 0h-469v712h469v-124h-330v-167h281v-124h-281v-173h330v-124zM476 783h-111v125h111v-125zM255 783h-111v125h111v-125z" />
    <glyph glyph-name="Igrave" unicode="&#xcc;" horiz-adv-x="305" 
d="M222 0h-139v712h139v-712zM234 781h-87l-114 170h137z" />
    <glyph glyph-name="Iacute" unicode="&#xcd;" horiz-adv-x="305" 
d="M222 0h-139v712h139v-712zM275 951l-114 -170h-87l64 170h137z" />
    <glyph glyph-name="Icircumflex" unicode="&#xce;" horiz-adv-x="305" 
d="M222 0h-139v712h139v-712zM335 781h-101l-83 91l-83 -91h-101l132 169h104z" />
    <glyph glyph-name="Idieresis" unicode="&#xcf;" horiz-adv-x="305" 
d="M222 0h-139v712h139v-712zM319 783h-111v125h111v-125zM98 783h-111v125h111v-125z" />
    <glyph glyph-name="Eth" unicode="&#xd0;" horiz-adv-x="682" 
d="M623 356c0 -80 -2.33301 -132.667 -7 -158c-7.33301 -43.333 -26 -81.666 -56 -114.999c-50 -55.333 -116.333 -83 -199 -83h-255v307h-69v106h69v299h257c82 0 147.667 -28 197 -84c30 -34 49 -73 57 -117c4 -24.667 6 -76.334 6 -155.001zM484 354
c0 52.667 -0.333008 84.333 -1 95c-3.33301 40 -11.333 69.333 -24 88c-24.667 34.667 -61 52 -109 52h-105v-176h116v-106h-116v-184h105c50 0 87 17.667 111 53c12 18 19.333 46.333 22 85c0.666992 7.33301 1 38.333 1 93z" />
    <glyph glyph-name="Ntilde" unicode="&#xd1;" horiz-adv-x="711" 
d="M628 0h-124l-282 437v-437h-139v712h124l282 -436v436h139v-712zM536 851c-39.333 -39.333 -76.9971 -59 -112.997 -59c-24.667 0 -50.334 7.66699 -77.001 23c-20.667 12 -39.334 18 -56.001 18c-20 0 -39.667 -9.66699 -59 -29l-56 57
c39.333 39.333 76.666 59 111.999 59c26 0 51.667 -7.66699 77 -23c20 -12 38.333 -18 55 -18c20 0 39.667 9.66699 59 29z" />
    <glyph glyph-name="Ograve" unicode="&#xd2;" horiz-adv-x="644" 
d="M585 356c0 -77.333 -3 -131 -9 -161c-8.66699 -49.333 -29.334 -90.333 -62.001 -123c-52 -52 -116 -78 -192 -78c-76.667 0 -141 26 -193 78c-32 32 -52.667 73 -62 123c-5.33301 29.333 -8 83 -8 161s2.66699 131.667 8 161c9.33301 50 30 91 62 123
c52 52 116.333 78 193 78c76 0 140 -26 192 -78c32.667 -32.667 53.334 -73.667 62.001 -123c6 -30 9 -83.667 9 -161zM446 356c0 54.667 -0.665039 89.333 -1.99805 104c-4 44 -15 76 -33 96c-22.667 25.333 -52.334 38 -89.001 38c-37.333 0 -67.333 -12.667 -90 -38
c-17.333 -20 -28 -52 -32 -96c-1.33301 -12 -2 -46.667 -2 -104s0.666992 -92 2 -104c4 -44 14.667 -76 32 -96c22.667 -25.333 52.667 -38 90 -38c41.333 0 73.666 16 96.999 48c18 24.667 27 88 27 190zM377.002 780.999h-87l-114 170h137z" />
    <glyph glyph-name="Oacute" unicode="&#xd3;" horiz-adv-x="644" 
d="M585 356c0 -77.333 -3 -131 -9 -161c-8.66699 -49.333 -29.334 -90.333 -62.001 -123c-52 -52 -116 -78 -192 -78c-76.667 0 -141 26 -193 78c-32 32 -52.667 73 -62 123c-5.33301 29.333 -8 83 -8 161s2.66699 131.667 8 161c9.33301 50 30 91 62 123
c52 52 116.333 78 193 78c76 0 140 -26 192 -78c32.667 -32.667 53.334 -73.667 62.001 -123c6 -30 9 -83.667 9 -161zM446 356c0 54.667 -0.665039 89.333 -1.99805 104c-4 44 -15 76 -33 96c-22.667 25.333 -52.334 38 -89.001 38c-37.333 0 -67.333 -12.667 -90 -38
c-17.333 -20 -28 -52 -32 -96c-1.33301 -12 -2 -46.667 -2 -104s0.666992 -92 2 -104c4 -44 14.667 -76 32 -96c22.667 -25.333 52.667 -38 90 -38c41.333 0 73.666 16 96.999 48c18 24.667 27 88 27 190zM468.002 950.999l-114 -170h-87l64 170h137z" />
    <glyph glyph-name="Ocircumflex" unicode="&#xd4;" horiz-adv-x="644" 
d="M585 356c0 -77.333 -3 -131 -9 -161c-8.66699 -49.333 -29.334 -90.333 -62.001 -123c-52 -52 -116 -78 -192 -78c-76.667 0 -141 26 -193 78c-32 32 -52.667 73 -62 123c-5.33301 29.333 -8 83 -8 161s2.66699 131.667 8 161c9.33301 50 30 91 62 123
c52 52 116.333 78 193 78c76 0 140 -26 192 -78c32.667 -32.667 53.334 -73.667 62.001 -123c6 -30 9 -83.667 9 -161zM446 356c0 54.667 -0.665039 89.333 -1.99805 104c-4 44 -15 76 -33 96c-22.667 25.333 -52.334 38 -89.001 38c-37.333 0 -67.333 -12.667 -90 -38
c-17.333 -20 -28 -52 -32 -96c-1.33301 -12 -2 -46.667 -2 -104s0.666992 -92 2 -104c4 -44 14.667 -76 32 -96c22.667 -25.333 52.667 -38 90 -38c41.333 0 73.666 16 96.999 48c18 24.667 27 88 27 190zM506.002 780.999h-101l-83 91l-83 -91h-101l132 169h104z" />
    <glyph glyph-name="Otilde" unicode="&#xd5;" horiz-adv-x="644" 
d="M585 356c0 -77.333 -3 -131 -9 -161c-8.66699 -49.333 -29.334 -90.333 -62.001 -123c-52 -52 -116 -78 -192 -78c-76.667 0 -141 26 -193 78c-32 32 -52.667 73 -62 123c-5.33301 29.333 -8 83 -8 161s2.66699 131.667 8 161c9.33301 50 30 91 62 123
c52 52 116.333 78 193 78c76 0 140 -26 192 -78c32.667 -32.667 53.334 -73.667 62.001 -123c6 -30 9 -83.667 9 -161zM446 356c0 54.667 -0.665039 89.333 -1.99805 104c-4 44 -15 76 -33 96c-22.667 25.333 -52.334 38 -89.001 38c-37.333 0 -67.333 -12.667 -90 -38
c-17.333 -20 -28 -52 -32 -96c-1.33301 -12 -2 -46.667 -2 -104s0.666992 -92 2 -104c4 -44 14.667 -76 32 -96c22.667 -25.333 52.667 -38 90 -38c41.333 0 73.666 16 96.999 48c18 24.667 27 88 27 190zM502.002 850.999c-39.333 -39.333 -76.9971 -59 -112.997 -59
c-24.667 0 -50.334 7.66699 -77.001 23c-20.667 12 -39.334 18 -56.001 18c-20 0 -39.667 -9.66699 -59 -29l-56 57c39.333 39.333 76.666 59 111.999 59c26 0 51.667 -7.66699 77 -23c20 -12 38.333 -18 55 -18c20 0 39.667 9.66699 59 29z" />
    <glyph glyph-name="Odieresis" unicode="&#xd6;" horiz-adv-x="644" 
d="M585 356c0 -77.333 -3 -131 -9 -161c-8.66699 -49.333 -29.334 -90.333 -62.001 -123c-52 -52 -116 -78 -192 -78c-76.667 0 -141 26 -193 78c-32 32 -52.667 73 -62 123c-5.33301 29.333 -8 83 -8 161s2.66699 131.667 8 161c9.33301 50 30 91 62 123
c52 52 116.333 78 193 78c76 0 140 -26 192 -78c32.667 -32.667 53.334 -73.667 62.001 -123c6 -30 9 -83.667 9 -161zM446 356c0 54.667 -0.665039 89.333 -1.99805 104c-4 44 -15 76 -33 96c-22.667 25.333 -52.334 38 -89.001 38c-37.333 0 -67.333 -12.667 -90 -38
c-17.333 -20 -28 -52 -32 -96c-1.33301 -12 -2 -46.667 -2 -104s0.666992 -92 2 -104c4 -44 14.667 -76 32 -96c22.667 -25.333 52.667 -38 90 -38c41.333 0 73.666 16 96.999 48c18 24.667 27 88 27 190zM488.002 782.999h-111v125h111v-125zM267.002 782.999h-111v125h111
v-125z" />
    <glyph glyph-name="multiply" unicode="&#xd7;" 
d="M494 145l-82 -82l-141 141l-140 -141l-82 82l141 141l-141 141l82 82l140 -141l141 141l82 -82l-141 -141z" />
    <glyph glyph-name="Oslash" unicode="&#xd8;" horiz-adv-x="652" 
d="M585 356c0 -77.333 -3 -131 -9 -161c-8.66699 -49.333 -29.334 -90.333 -62.001 -123c-52 -52 -116 -78 -192 -78c-43.333 0 -81 7.33301 -113 22l-29 -60h-99l53 111l-5 5c-32 32 -52.667 73 -62 123c-5.33301 29.333 -8 83 -8 161s2.66699 131.667 8 161
c9.33301 50 30 91 62 123c52 52 116.333 78 193 78c43.333 0 81 -7.33301 113 -22l29 60h98l-53 -111l5 -5c32.667 -32.667 53.334 -73.667 62.001 -123c6 -30 9 -83.667 9 -161zM385 578c-17.333 10.667 -38.333 16 -63 16c-37.333 0 -67.333 -12.667 -90 -38
c-17.333 -20 -28 -52 -32 -96c-1.33301 -12 -2 -46.667 -2 -104c0 -76 3 -126.333 9 -151zM446 356c0 73.333 -3.33203 123.667 -9.99902 151l-178 -372c18.667 -11.333 40 -17 64 -17c41.333 0 73.666 16 96.999 48c18 24.667 27 88 27 190z" />
    <glyph glyph-name="Ugrave" unicode="&#xd9;" horiz-adv-x="668" 
d="M596 244c0 -74 -25 -134.167 -75 -180.5s-112.333 -69.5 -187 -69.5s-137 23.167 -187 69.5s-75 106.5 -75 180.5v468h139v-463c0 -40.667 11 -72.667 33 -96s52 -35 90 -35s68.167 11.667 90.5 35s33.5 55.333 33.5 96v463h138v-468zM389 781h-87l-114 170h137z" />
    <glyph glyph-name="Uacute" unicode="&#xda;" horiz-adv-x="668" 
d="M596 244c0 -74 -25 -134.167 -75 -180.5s-112.333 -69.5 -187 -69.5s-137 23.167 -187 69.5s-75 106.5 -75 180.5v468h139v-463c0 -40.667 11 -72.667 33 -96s52 -35 90 -35s68.167 11.667 90.5 35s33.5 55.333 33.5 96v463h138v-468zM480 951l-114 -170h-87l64 170h137z
" />
    <glyph glyph-name="Ucircumflex" unicode="&#xdb;" horiz-adv-x="668" 
d="M596 244c0 -74 -25 -134.167 -75 -180.5s-112.333 -69.5 -187 -69.5s-137 23.167 -187 69.5s-75 106.5 -75 180.5v468h139v-463c0 -40.667 11 -72.667 33 -96s52 -35 90 -35s68.167 11.667 90.5 35s33.5 55.333 33.5 96v463h138v-468zM518 781h-101l-83 91l-83 -91h-101
l132 169h104z" />
    <glyph glyph-name="Udieresis" unicode="&#xdc;" horiz-adv-x="668" 
d="M596 244c0 -74 -25 -134.167 -75 -180.5s-112.333 -69.5 -187 -69.5s-137 23.167 -187 69.5s-75 106.5 -75 180.5v468h139v-463c0 -40.667 11 -72.667 33 -96s52 -35 90 -35s68.167 11.667 90.5 35s33.5 55.333 33.5 96v463h138v-468zM500 783h-111v125h111v-125z
M279 783h-111v125h111v-125z" />
    <glyph glyph-name="Yacute" unicode="&#xdd;" horiz-adv-x="572" 
d="M569 712l-214 -420v-292h-138v292l-214 420h151l133 -287l131 287h151zM431 951l-114 -170h-87l64 170h137z" />
    <glyph glyph-name="Thorn" unicode="&#xde;" horiz-adv-x="633" 
d="M594 360c0 -62.667 -20.667 -114.667 -62 -156c-44 -44 -101.667 -66 -173 -66h-137v-138h-139v712h139v-131h137c71.333 0 129 -21.667 173 -65c41.333 -41.333 62 -93.333 62 -156zM455 360c0 29.333 -9.33301 52.833 -28 70.5s-43.667 26.5 -75 26.5h-130v-195h130
c31.333 0 56.333 9 75 27s28 41.667 28 71z" />
    <glyph glyph-name="germandbls" unicode="&#xdf;" horiz-adv-x="574" 
d="M516 161c0 -52.667 -14.001 -92.667 -42.001 -120s-69.667 -41 -125 -41h-52v110h26c19.333 0 34.5 5 45.5 15s16.5 25.667 16.5 47v144c0 20 -5.16699 35.167 -15.5 45.5s-25.166 15.5 -44.499 15.5h-28v102h28c40 0 60 20 60 60c0 44 -29.667 66 -89 66
c-62 0 -93 -31.333 -93 -94v-511h-130v521c0 66.667 21.333 117 64 151c39.333 30.667 93 46 161 46c66 0 118 -14 156 -42c40.667 -30.667 61 -75 61 -133c0 -50.667 -20.333 -88.334 -61 -113.001c41.333 -21.333 62 -57.666 62 -108.999v-160z" />
    <glyph glyph-name="agrave" unicode="&#xe0;" horiz-adv-x="534" 
d="M467 0h-127.001v45c-33.333 -33.333 -76 -50 -128 -50c-58.667 0 -102.667 15 -132 45s-44 69.333 -44 118c0 44 15.167 80.167 45.5 108.5s74.5 42.5 132.5 42.5h123v26c0 54.667 -32.333 82 -97 82c-42 0 -75.333 -14.333 -100 -43l-83 81
c24.667 27.333 51.667 46.333 81 57c26.667 10 62.334 15 107.001 15c148 0 222 -61.333 222 -184v-343zM336.999 192l-0.000976562 28h-103c-48.667 0 -73 -19.667 -73 -59c0 -40 25 -60 75 -60c44.667 0 74.334 11 89.001 33c8 12 12 31.333 12 58zM315.998 604h-87
l-114 170h137z" />
    <glyph glyph-name="aacute" unicode="&#xe1;" horiz-adv-x="534" 
d="M467 0h-127.001v45c-33.333 -33.333 -76 -50 -128 -50c-58.667 0 -102.667 15 -132 45s-44 69.333 -44 118c0 44 15.167 80.167 45.5 108.5s74.5 42.5 132.5 42.5h123v26c0 54.667 -32.333 82 -97 82c-42 0 -75.333 -14.333 -100 -43l-83 81
c24.667 27.333 51.667 46.333 81 57c26.667 10 62.334 15 107.001 15c148 0 222 -61.333 222 -184v-343zM336.999 192l-0.000976562 28h-103c-48.667 0 -73 -19.667 -73 -59c0 -40 25 -60 75 -60c44.667 0 74.334 11 89.001 33c8 12 12 31.333 12 58zM406.998 774l-114 -170
h-87l64 170h137z" />
    <glyph glyph-name="acircumflex" unicode="&#xe2;" horiz-adv-x="534" 
d="M467 0h-127.001v45c-33.333 -33.333 -76 -50 -128 -50c-58.667 0 -102.667 15 -132 45s-44 69.333 -44 118c0 44 15.167 80.167 45.5 108.5s74.5 42.5 132.5 42.5h123v26c0 54.667 -32.333 82 -97 82c-42 0 -75.333 -14.333 -100 -43l-83 81
c24.667 27.333 51.667 46.333 81 57c26.667 10 62.334 15 107.001 15c148 0 222 -61.333 222 -184v-343zM336.999 192l-0.000976562 28h-103c-48.667 0 -73 -19.667 -73 -59c0 -40 25 -60 75 -60c44.667 0 74.334 11 89.001 33c8 12 12 31.333 12 58zM444.998 604h-101
l-83 91l-83 -91h-101l132 169h104z" />
    <glyph glyph-name="atilde" unicode="&#xe3;" horiz-adv-x="534" 
d="M467 0h-127.001v45c-33.333 -33.333 -76 -50 -128 -50c-58.667 0 -102.667 15 -132 45s-44 69.333 -44 118c0 44 15.167 80.167 45.5 108.5s74.5 42.5 132.5 42.5h123v26c0 54.667 -32.333 82 -97 82c-42 0 -75.333 -14.333 -100 -43l-83 81
c24.667 27.333 51.667 46.333 81 57c26.667 10 62.334 15 107.001 15c148 0 222 -61.333 222 -184v-343zM336.999 192l-0.000976562 28h-103c-48.667 0 -73 -19.667 -73 -59c0 -40 25 -60 75 -60c44.667 0 74.334 11 89.001 33c8 12 12 31.333 12 58zM440.998 674
c-39.333 -39.333 -76.9971 -59 -112.997 -59c-24.667 0 -50.334 7.66699 -77.001 23c-20.667 12 -39.334 18 -56.001 18c-20 0 -39.667 -9.66699 -59 -29l-56 57c39.333 39.333 76.666 59 111.999 59c26 0 51.667 -7.66699 77 -23c20 -12 38.333 -18 55 -18
c20 0 39.667 9.66699 59 29z" />
    <glyph glyph-name="adieresis" unicode="&#xe4;" horiz-adv-x="534" 
d="M467 0h-127.001v45c-33.333 -33.333 -76 -50 -128 -50c-58.667 0 -102.667 15 -132 45s-44 69.333 -44 118c0 44 15.167 80.167 45.5 108.5s74.5 42.5 132.5 42.5h123v26c0 54.667 -32.333 82 -97 82c-42 0 -75.333 -14.333 -100 -43l-83 81
c24.667 27.333 51.667 46.333 81 57c26.667 10 62.334 15 107.001 15c148 0 222 -61.333 222 -184v-343zM336.999 192l-0.000976562 28h-103c-48.667 0 -73 -19.667 -73 -59c0 -40 25 -60 75 -60c44.667 0 74.334 11 89.001 33c8 12 12 31.333 12 58zM426.998 606h-111v125
h111v-125zM205.998 606h-111v125h111v-125z" />
    <glyph glyph-name="aring" unicode="&#xe5;" horiz-adv-x="534" 
d="M467 0h-127.001v45c-33.333 -33.333 -76 -50 -128 -50c-58.667 0 -102.667 15 -132 45s-44 69.333 -44 118c0 44 15.167 80.167 45.5 108.5s74.5 42.5 132.5 42.5h123v26c0 54.667 -32.333 82 -97 82c-42 0 -75.333 -14.333 -100 -43l-83 81
c24.667 27.333 51.667 46.333 81 57c26.667 10 62.334 15 107.001 15c148 0 222 -61.333 222 -184v-343zM336.999 192l-0.000976562 28h-103c-48.667 0 -73 -19.667 -73 -59c0 -40 25 -60 75 -60c44.667 0 74.334 11 89.001 33c8 12 12 31.333 12 58zM391.998 715
c0 -36 -12.833 -66.833 -38.5 -92.5s-56.5 -38.5 -92.5 -38.5s-66.833 12.833 -92.5 38.5s-38.5 56.5 -38.5 92.5s12.833 66.833 38.5 92.5s56.5 38.5 92.5 38.5s66.833 -12.667 92.5 -38s38.5 -56.333 38.5 -93zM318.998 715c0 16 -5.66699 29.667 -17 41s-25 17 -41 17
s-29.667 -5.66699 -41 -17s-17 -25 -17 -41s5.66699 -29.833 17 -41.5s25 -17.5 41 -17.5s29.667 5.83301 41 17.5s17 25.5 17 41.5z" />
    <glyph glyph-name="ae" unicode="&#xe6;" horiz-adv-x="838" 
d="M791 220l-325.999 -0.000976562c0 -34.667 10.167 -62.667 30.5 -84s48.166 -32 83.499 -32c46 0 85.333 16.333 118 49l79 -77c-28.667 -28.667 -56.667 -49 -84 -61c-31.333 -14 -69.333 -21 -114 -21c-80 0 -141 24.333 -183 73c-26.667 -29.333 -55 -49.333 -85 -60
c-25.333 -8.66699 -58 -13 -98 -13c-58 0 -102.333 15.667 -133 47c-28.667 29.333 -43 68.333 -43 117c0 44 15.167 80.167 45.5 108.5s74.5 42.5 132.5 42.5h123v26c0 54.667 -32.333 82 -97 82c-42 0 -75.333 -14.333 -100 -43l-83 81c24.667 27.333 51.667 46.333 81 57
c26.667 10 62.334 15 107.001 15c79.333 0 136.333 -19 171 -57c37.333 38 86.666 57 147.999 57c70.667 0 126.667 -23.667 168 -71c39.333 -45.333 59 -104.666 59 -177.999v-58zM663.001 308.999c-0.666992 21.333 -4.66699 40 -12 56c-16 36 -45 54 -87 54
s-71 -18 -87 -54c-7.33301 -16 -11.333 -34.667 -12 -56h198zM337.001 191.999l-0.000976562 28h-103c-48.667 0 -73 -19.667 -73 -59c0 -40 25 -60 75 -60c44.667 0 74.334 11 89.001 33c8 12 12 31.333 12 58z" />
    <glyph glyph-name="ccedilla" unicode="&#xe7;" horiz-adv-x="482" 
d="M452 65c-45.333 -47.333 -102.667 -71.001 -172 -71.001c-63.333 0 -115 18 -155 54c-52 46.667 -78 117.667 -78 213s26 166 78 212c40 36 91.667 54 155 54c70 0 127.333 -23.333 172 -70l-88 -88c-25.333 27.333 -53.333 41 -84 41s-55.5 -11.667 -74.5 -35
s-28.5 -61.333 -28.5 -114c0 -53.333 9.5 -91.666 28.5 -114.999s43.833 -35 74.5 -35s58.667 13.667 84 41zM324.999 -60.001l-44 -146h-121l69 146h96z" />
    <glyph glyph-name="egrave" unicode="&#xe8;" horiz-adv-x="548" 
d="M501 220l-326 -0.000976562c0 -34.667 10.167 -62.667 30.5 -84s48.166 -32 83.499 -32c46 0 85.333 16.333 118 49l79 -77c-28.667 -28.667 -56.667 -49 -84 -61c-31.333 -14 -69.333 -21 -114 -21c-160.667 0 -241 89 -241 267c0 83.333 21 149 63 197
c40.667 46 95.334 69 164.001 69c70.667 0 126.667 -23.667 168 -71c39.333 -45.333 59 -104.666 59 -177.999v-58zM373 308.999c-0.666992 21.333 -4.66699 40 -12 56c-16 36 -45 54 -87 54s-71 -18 -87 -54c-7.33301 -16 -11.333 -34.667 -12 -56h198zM332 603.999h-87
l-114 170h137z" />
    <glyph glyph-name="eacute" unicode="&#xe9;" horiz-adv-x="548" 
d="M501 220l-326 -0.000976562c0 -34.667 10.167 -62.667 30.5 -84s48.166 -32 83.499 -32c46 0 85.333 16.333 118 49l79 -77c-28.667 -28.667 -56.667 -49 -84 -61c-31.333 -14 -69.333 -21 -114 -21c-160.667 0 -241 89 -241 267c0 83.333 21 149 63 197
c40.667 46 95.334 69 164.001 69c70.667 0 126.667 -23.667 168 -71c39.333 -45.333 59 -104.666 59 -177.999v-58zM373 308.999c-0.666992 21.333 -4.66699 40 -12 56c-16 36 -45 54 -87 54s-71 -18 -87 -54c-7.33301 -16 -11.333 -34.667 -12 -56h198zM423 773.999
l-114 -170h-87l64 170h137z" />
    <glyph glyph-name="ecircumflex" unicode="&#xea;" horiz-adv-x="548" 
d="M501 220l-326 -0.000976562c0 -34.667 10.167 -62.667 30.5 -84s48.166 -32 83.499 -32c46 0 85.333 16.333 118 49l79 -77c-28.667 -28.667 -56.667 -49 -84 -61c-31.333 -14 -69.333 -21 -114 -21c-160.667 0 -241 89 -241 267c0 83.333 21 149 63 197
c40.667 46 95.334 69 164.001 69c70.667 0 126.667 -23.667 168 -71c39.333 -45.333 59 -104.666 59 -177.999v-58zM373 308.999c-0.666992 21.333 -4.66699 40 -12 56c-16 36 -45 54 -87 54s-71 -18 -87 -54c-7.33301 -16 -11.333 -34.667 -12 -56h198zM461 603.999h-101
l-83 91l-83 -91h-101l132 169h104z" />
    <glyph glyph-name="edieresis" unicode="&#xeb;" horiz-adv-x="548" 
d="M501 220l-326 -0.000976562c0 -34.667 10.167 -62.667 30.5 -84s48.166 -32 83.499 -32c46 0 85.333 16.333 118 49l79 -77c-28.667 -28.667 -56.667 -49 -84 -61c-31.333 -14 -69.333 -21 -114 -21c-160.667 0 -241 89 -241 267c0 83.333 21 149 63 197
c40.667 46 95.334 69 164.001 69c70.667 0 126.667 -23.667 168 -71c39.333 -45.333 59 -104.666 59 -177.999v-58zM373 308.999c-0.666992 21.333 -4.66699 40 -12 56c-16 36 -45 54 -87 54s-71 -18 -87 -54c-7.33301 -16 -11.333 -34.667 -12 -56h198zM443 605.999h-111
v125h111v-125zM222 605.999h-111v125h111v-125z" />
    <glyph glyph-name="igrave" unicode="&#xec;" horiz-adv-x="275" 
d="M203 0h-130v521h130v-521zM220 604h-87l-114 170h137z" />
    <glyph glyph-name="iacute" unicode="&#xed;" horiz-adv-x="275" 
d="M203 0h-130v521h130v-521zM260 774l-114 -170h-87l64 170h137z" />
    <glyph glyph-name="icircumflex" unicode="&#xee;" horiz-adv-x="275" 
d="M203 0h-130v521h130v-521zM324 604h-101l-83 91l-83 -91h-101l132 169h104z" />
    <glyph glyph-name="idieresis" unicode="&#xef;" horiz-adv-x="275" 
d="M203 0h-130v521h130v-521zM303 606h-111v125h111v-125zM82 606h-111v125h111v-125z" />
    <glyph glyph-name="eth" unicode="&#xf0;" 
d="M486 254c0 -92 -19.667 -158.333 -59 -199s-91.333 -61 -156 -61s-116.667 20.333 -156 61s-59 107 -59 199c0 90.667 19.333 156.334 58 197.001c22 22.667 51.667 39 89 49c28 7.33301 53.333 9.66602 76 6.99902l-34 62h-114v91h68l-31 60h139l31 -60h92v-91h-46
l40 -77c24.667 -48 41.167 -87.5 49.5 -118.5s12.5 -70.833 12.5 -119.5zM356 254c0 61.333 -9 101.332 -27 119.999c-14 14.667 -33.333 22 -58 22c-24 0 -43 -7.33301 -57 -22c-18.667 -19.333 -28 -59.333 -28 -120c0 -61.333 9.33301 -101.666 28 -120.999
c14 -14.667 33 -22 57 -22c24.667 0 44 7.33301 58 22c18 18.667 27 59 27 121z" />
    <glyph glyph-name="ntilde" unicode="&#xf1;" horiz-adv-x="573" 
d="M506 0l-130.001 -0.000976562v315c0 32.667 -9.33301 57.334 -28 74.001c-15.333 14 -34.666 21 -57.999 21c-24 0 -43.667 -7 -59 -21c-18.667 -16.667 -28 -41.334 -28 -74.001v-315h-130v521h127v-48c34 36 77.333 54 130 54c51.333 0 92.333 -15.333 123 -46
c35.333 -35.333 53 -84.666 53 -147.999v-333zM469.999 673.999c-39.333 -39.333 -76.9971 -59 -112.997 -59c-24.667 0 -50.334 7.66699 -77.001 23c-20.667 12 -39.334 18 -56.001 18c-20 0 -39.667 -9.66699 -59 -29l-56 57c39.333 39.333 76.666 59 111.999 59
c26 0 51.667 -7.66699 77 -23c20 -12 38.333 -18 55 -18c20 0 39.667 9.66699 59 29z" />
    <glyph glyph-name="ograve" unicode="&#xf2;" 
d="M492 261c0 -50 -3.99707 -89.667 -11.9971 -119c-8.66699 -32.667 -24.334 -60.667 -47.001 -84c-40.667 -42.667 -94.667 -64 -162 -64c-66.667 0 -120.334 21.333 -161.001 64c-22.667 23.333 -38.334 51.333 -47.001 84c-8 29.333 -12 69 -12 119
c0 93.333 20 161 60 203s93.333 63 160 63c67.333 0 121 -21 161 -63s60 -109.667 60 -203zM362.003 261c0 64 -10 106 -30 126c-15.333 15.333 -35.666 23 -60.999 23c-24.667 0 -44.667 -7.66699 -60 -23c-20 -20 -30 -62 -30 -126c0 -64.667 10 -107 30 -127
c15.333 -15.333 35.333 -23 60 -23c25.333 0 45.666 7.66699 60.999 23c20 20 30 62.333 30 127zM323.003 604h-87l-114 170h137z" />
    <glyph glyph-name="oacute" unicode="&#xf3;" 
d="M492 261c0 -50 -3.99707 -89.667 -11.9971 -119c-8.66699 -32.667 -24.334 -60.667 -47.001 -84c-40.667 -42.667 -94.667 -64 -162 -64c-66.667 0 -120.334 21.333 -161.001 64c-22.667 23.333 -38.334 51.333 -47.001 84c-8 29.333 -12 69 -12 119
c0 93.333 20 161 60 203s93.333 63 160 63c67.333 0 121 -21 161 -63s60 -109.667 60 -203zM362.003 261c0 64 -10 106 -30 126c-15.333 15.333 -35.666 23 -60.999 23c-24.667 0 -44.667 -7.66699 -60 -23c-20 -20 -30 -62 -30 -126c0 -64.667 10 -107 30 -127
c15.333 -15.333 35.333 -23 60 -23c25.333 0 45.666 7.66699 60.999 23c20 20 30 62.333 30 127zM418.003 774l-114 -170h-87l64 170h137z" />
    <glyph glyph-name="ocircumflex" unicode="&#xf4;" 
d="M492 261c0 -50 -3.99707 -89.667 -11.9971 -119c-8.66699 -32.667 -24.334 -60.667 -47.001 -84c-40.667 -42.667 -94.667 -64 -162 -64c-66.667 0 -120.334 21.333 -161.001 64c-22.667 23.333 -38.334 51.333 -47.001 84c-8 29.333 -12 69 -12 119
c0 93.333 20 161 60 203s93.333 63 160 63c67.333 0 121 -21 161 -63s60 -109.667 60 -203zM362.003 261c0 64 -10 106 -30 126c-15.333 15.333 -35.666 23 -60.999 23c-24.667 0 -44.667 -7.66699 -60 -23c-20 -20 -30 -62 -30 -126c0 -64.667 10 -107 30 -127
c15.333 -15.333 35.333 -23 60 -23c25.333 0 45.666 7.66699 60.999 23c20 20 30 62.333 30 127zM456.003 604h-101l-83 91l-83 -91h-101l132 169h104z" />
    <glyph glyph-name="otilde" unicode="&#xf5;" 
d="M492 261c0 -50 -3.99707 -89.667 -11.9971 -119c-8.66699 -32.667 -24.334 -60.667 -47.001 -84c-40.667 -42.667 -94.667 -64 -162 -64c-66.667 0 -120.334 21.333 -161.001 64c-22.667 23.333 -38.334 51.333 -47.001 84c-8 29.333 -12 69 -12 119
c0 93.333 20 161 60 203s93.333 63 160 63c67.333 0 121 -21 161 -63s60 -109.667 60 -203zM362.003 261c0 64 -10 106 -30 126c-15.333 15.333 -35.666 23 -60.999 23c-24.667 0 -44.667 -7.66699 -60 -23c-20 -20 -30 -62 -30 -126c0 -64.667 10 -107 30 -127
c15.333 -15.333 35.333 -23 60 -23c25.333 0 45.666 7.66699 60.999 23c20 20 30 62.333 30 127zM452.003 674c-39.333 -39.333 -76.9971 -59 -112.997 -59c-24.667 0 -50.334 7.66699 -77.001 23c-20.667 12 -39.334 18 -56.001 18c-20 0 -39.667 -9.66699 -59 -29l-56 57
c39.333 39.333 76.666 59 111.999 59c26 0 51.667 -7.66699 77 -23c20 -12 38.333 -18 55 -18c20 0 39.667 9.66699 59 29z" />
    <glyph glyph-name="odieresis" unicode="&#xf6;" 
d="M492 261c0 -50 -3.99707 -89.667 -11.9971 -119c-8.66699 -32.667 -24.334 -60.667 -47.001 -84c-40.667 -42.667 -94.667 -64 -162 -64c-66.667 0 -120.334 21.333 -161.001 64c-22.667 23.333 -38.334 51.333 -47.001 84c-8 29.333 -12 69 -12 119
c0 93.333 20 161 60 203s93.333 63 160 63c67.333 0 121 -21 161 -63s60 -109.667 60 -203zM362.003 261c0 64 -10 106 -30 126c-15.333 15.333 -35.666 23 -60.999 23c-24.667 0 -44.667 -7.66699 -60 -23c-20 -20 -30 -62 -30 -126c0 -64.667 10 -107 30 -127
c15.333 -15.333 35.333 -23 60 -23c25.333 0 45.666 7.66699 60.999 23c20 20 30 62.333 30 127zM438.003 606h-111v125h111v-125zM217.003 606h-111v125h111v-125z" />
    <glyph glyph-name="divide" unicode="&#xf7;" 
d="M337 423h-130v130h130v-130zM497 225h-451v121h451v-121zM337 18h-130v130h130v-130z" />
    <glyph glyph-name="oslash" unicode="&#xf8;" 
d="M492 261c0 -50 -3.99707 -89.6689 -11.9971 -119.002c-8.66699 -32.667 -24.334 -60.667 -47.001 -84c-40.667 -42.667 -94.667 -64 -162 -64c-38.667 0 -73.334 7.66699 -104.001 23l-36 -61h-79l59 101l-1 1c-22.667 22.667 -38.334 50.667 -47.001 84
c-8 28.667 -12 68.334 -12 119.001c0 93.333 20 161 60 203s93.333 63 160 63c40.667 0 75.667 -7.33301 105 -22l35 60h80l-60 -101l2 -1c39.333 -41.333 59 -108.666 59 -201.999zM320.003 396.998c-14 8.66699 -30.333 13.001 -49 13.001
c-24.667 0 -44.667 -7.66699 -60 -23c-20 -20 -30 -62 -30 -126c0 -38.667 2.33301 -67.334 7 -86.001zM362.003 260.999c0 35.333 -2.66602 63.667 -7.99902 85l-131 -222c14 -8.66699 30 -13 48 -13c25.333 0 45.666 7.66699 60.999 23c20 20 30 62.333 30 127z" />
    <glyph glyph-name="ugrave" unicode="&#xf9;" horiz-adv-x="573" 
d="M500 0l-126.999 0.000976562v48c-34 -36 -77.333 -54 -130 -54c-51.333 0 -92.333 15.333 -123 46c-35.333 35.333 -53 84.666 -53 147.999v333h130v-315c0 -32.667 9.33301 -57.334 28 -74.001c15.333 -14 34.666 -21 57.999 -21c24 0 43.667 7 59 21
c18.667 16.667 28 41.334 28 74.001v315h130v-521zM338.001 604.001h-87l-114 170h137z" />
    <glyph glyph-name="uacute" unicode="&#xfa;" horiz-adv-x="573" 
d="M500 0l-126.999 0.000976562v48c-34 -36 -77.333 -54 -130 -54c-51.333 0 -92.333 15.333 -123 46c-35.333 35.333 -53 84.666 -53 147.999v333h130v-315c0 -32.667 9.33301 -57.334 28 -74.001c15.333 -14 34.666 -21 57.999 -21c24 0 43.667 7 59 21
c18.667 16.667 28 41.334 28 74.001v315h130v-521zM429.001 774.001l-114 -170h-87l64 170h137z" />
    <glyph glyph-name="ucircumflex" unicode="&#xfb;" horiz-adv-x="573" 
d="M500 0l-126.999 0.000976562v48c-34 -36 -77.333 -54 -130 -54c-51.333 0 -92.333 15.333 -123 46c-35.333 35.333 -53 84.666 -53 147.999v333h130v-315c0 -32.667 9.33301 -57.334 28 -74.001c15.333 -14 34.666 -21 57.999 -21c24 0 43.667 7 59 21
c18.667 16.667 28 41.334 28 74.001v315h130v-521zM467.001 604.001h-101l-83 91l-83 -91h-101l132 169h104z" />
    <glyph glyph-name="udieresis" unicode="&#xfc;" horiz-adv-x="573" 
d="M500 0l-126.999 0.000976562v48c-34 -36 -77.333 -54 -130 -54c-51.333 0 -92.333 15.333 -123 46c-35.333 35.333 -53 84.666 -53 147.999v333h130v-315c0 -32.667 9.33301 -57.334 28 -74.001c15.333 -14 34.666 -21 57.999 -21c24 0 43.667 7 59 21
c18.667 16.667 28 41.334 28 74.001v315h130v-521zM449.001 606.001h-111v125h111v-125zM228.001 606.001h-111v125h111v-125z" />
    <glyph glyph-name="yacute" unicode="&#xfd;" horiz-adv-x="494" 
d="M490 521l-223 -605.001c-10.667 -29.333 -23.667 -51.666 -39 -66.999c-26.667 -26.667 -64 -40 -112 -40h-51v117h30c19.333 0 33.5 3.33301 42.5 10s16.5 19 22.5 37l22 64l-178 484h137l108 -322l104 322h137zM390 773.999l-114 -170h-87l64 170h137z" />
    <glyph glyph-name="thorn" unicode="&#xfe;" horiz-adv-x="562" 
d="M509 261c0 -53.333 -2.33301 -93.334 -7 -120.001c-7.33301 -43.333 -22.666 -76.666 -45.999 -99.999c-31.333 -31.333 -73.666 -47 -126.999 -47c-52.667 0 -94.667 17.333 -126 52v-237h-130v903h130v-237c31.333 34.667 73.333 52 126 52
c53.333 0 95.666 -15.667 126.999 -47c23.333 -23.333 38.666 -56.666 45.999 -99.999c4.66699 -26.667 7 -66.334 7 -119.001zM379 260.999c0 46 -3.66699 79 -11 99c-13.333 33.333 -39 50 -77 50s-63.667 -16.667 -77 -50c-7.33301 -20 -11 -53 -11 -99
s3.66699 -79 11 -99c13.333 -34 39 -51 77 -51s63.667 17 77 51c7.33301 20 11 53 11 99z" />
    <glyph glyph-name="ydieresis" unicode="&#xff;" horiz-adv-x="494" 
d="M490 521l-223 -605.001c-10.667 -29.333 -23.667 -51.666 -39 -66.999c-26.667 -26.667 -64 -40 -112 -40h-51v117h30c19.333 0 33.5 3.33301 42.5 10s16.5 19 22.5 37l22 64l-178 484h137l108 -322l104 322h137zM410 605.999h-111v125h111v-125zM189 605.999h-111v125
h111v-125z" />
    <glyph glyph-name="dotlessi" unicode="&#x131;" horiz-adv-x="275" 
d="M203 0h-130v521h130v-521z" />
    <glyph glyph-name="Lslash" unicode="&#x141;" horiz-adv-x="593" 
d="M563 0h-462v244l-64 -41v116l64 41v352h139v-265l128 81v-115l-128 -81v-208h323v-124z" />
    <glyph glyph-name="lslash" unicode="&#x142;" horiz-adv-x="336" 
d="M309 0h-74c-50 0 -88.667 15.667 -116 47c-23.333 26.667 -35 60.667 -35 102v153l-54 -33v109l54 34v300h130v-222l60 37v-109l-60 -38v-223c0 -31.333 15 -47 45 -47h50v-110z" />
    <glyph glyph-name="OE" unicode="&#x152;" horiz-adv-x="966" 
d="M912 0h-466v44c-31.333 -33.333 -74 -50 -128 -50c-76 0 -139 25 -189 75c-32 32 -52.667 73.333 -62 124c-5.33301 30.667 -8 85 -8 163s2.66699 132.333 8 163c9.33301 50.667 30 92 62 124c50 50 113 75 189 75c54 0 96.667 -16.667 128 -50v44h465v-123h-327
c0 -9.33301 0.333008 -37.333 1 -84v-85h278v-122h-278v-87c-0.666992 -48.667 -1 -78 -1 -88h328v-123zM446 356c0 54.667 -0.665039 89.333 -1.99805 104c-4 44 -15 76 -33 96c-22.667 25.333 -52.334 38 -89.001 38c-37.333 0 -67.333 -12.667 -90 -38
c-17.333 -20 -28 -52 -32 -96c-1.33301 -12 -2 -46.667 -2 -104s0.666992 -92 2 -104c4 -44 14.667 -76 32 -96c22.667 -25.333 52.667 -38 90 -38c41.333 0 73.666 16 96.999 48c18 24.667 27 88 27 190z" />
    <glyph glyph-name="oe" unicode="&#x153;" horiz-adv-x="863" 
d="M816 220l-325.998 -0.000976562c0 -34.667 10.167 -62.667 30.5 -84s48.166 -32 83.499 -32c45.333 0 84.333 16.333 117 49l80 -77c-28.667 -28.667 -56.667 -49 -84 -61c-31.333 -14 -69.333 -21 -114 -21c-76.667 0 -134.667 22 -174 66c-36 -44 -88.667 -66 -158 -66
c-66.667 0 -120.334 21.333 -161.001 64c-22.667 23.333 -38.334 51.333 -47.001 84c-8 29.333 -12 69 -12 119c0 93.333 20 161 60 203s93.333 63 160 63c70.667 0 124.334 -23 161.001 -69c38 46 90.333 69 157 69c70.667 0 126.667 -23.667 168 -71
c39.333 -45.333 59 -104.666 59 -177.999v-58zM687.002 308.999c-0.666992 22.667 -4.33203 41.334 -10.999 56.001c-16 36 -45 54 -87 54c-42.667 0 -72 -18 -88 -54c-6.66699 -14.667 -10.334 -33.334 -11.001 -56.001h197zM362.004 260.999c0 64 -10 106 -30 126
c-15.333 15.333 -35.666 23 -60.999 23c-24.667 0 -44.667 -7.66699 -60 -23c-20 -20 -30 -62 -30 -126c0 -64.667 10 -107 30 -127c15.333 -15.333 35.333 -23 60 -23c25.333 0 45.666 7.66699 60.999 23c20 20 30 62.333 30 127z" />
    <glyph glyph-name="Scaron" unicode="&#x160;" horiz-adv-x="591" 
d="M543 210c0 -67.333 -24.832 -120.167 -74.499 -158.5s-112.834 -57.5 -189.501 -57.5c-111.333 0 -198 31.333 -260 94l90 90c40 -40 97.333 -60 172 -60c84 0 126 29.333 126 88c0 26.667 -7 46.5 -21 59.5s-35.333 21.5 -64 25.5l-86 12
c-126 17.333 -189 83.666 -189 198.999c0 64.667 22.333 116.834 67 156.501s105 59.5 181 59.5c96 0 172.667 -27.667 230 -83l-88 -87c-34 32.667 -82.667 49 -146 49c-35.333 0 -62.5 -8.5 -81.5 -25.5s-28.5 -38.5 -28.5 -64.5c0 -20.667 7.5 -38 22.5 -52
s36.5 -23 64.5 -27l84 -12c60.667 -8.66699 106 -27 136 -55c36.667 -34.667 55 -85 55 -151zM478.001 949.999l-132 -169h-104l-132 169h101l83 -90l83 90h101z" />
    <glyph glyph-name="scaron" unicode="&#x161;" horiz-adv-x="501" 
d="M465 164c0 -55.333 -21.3311 -98 -63.998 -128c-40 -28 -92.333 -42 -157 -42c-48.667 0 -88.334 4.33301 -119.001 13c-38.667 11.333 -73 32 -103 62l85 85c32.667 -32.667 79 -49 139 -49c61.333 0 92 18 92 54c0 28.667 -18.333 44.667 -55 48l-82 8
c-101.333 10 -152 58.667 -152 146c0 52 20.333 93.333 61 124c37.333 28 84 42 140 42c89.333 0 155.666 -20.333 198.999 -61l-80 -81c-26 23.333 -66.333 35 -121 35c-49.333 0 -74 -16.667 -74 -50c0 -26.667 18 -41.667 54 -45l82 -8c103.333 -10 155 -61 155 -153z
M434.002 773l-132 -169h-104l-132 169h101l83 -90l83 90h101z" />
    <glyph glyph-name="Ydieresis" unicode="&#x178;" horiz-adv-x="572" 
d="M569 712l-214 -420v-292h-138v292l-214 420h151l133 -287l131 287h151zM451 783h-111v125h111v-125zM230 783h-111v125h111v-125z" />
    <glyph glyph-name="Zcaron" unicode="&#x17d;" horiz-adv-x="548" 
d="M508 0h-468v112l304 476h-291v124h455v-110l-305 -478h305v-124zM461 950l-132 -169h-104l-132 169h101l83 -90l83 90h101z" />
    <glyph glyph-name="zcaron" unicode="&#x17e;" horiz-adv-x="478" 
d="M434 0h-397v99l231 305h-218v117h384v-99l-234 -305h234v-117zM426 773l-132 -169h-104l-132 169h101l83 -90l83 90h101z" />
    <glyph glyph-name="florin" unicode="&#x192;" horiz-adv-x="427" 
d="M397 610l-69 0.00195312c-30.667 0 -48.667 -15.667 -54 -47l-29 -166h96v-100h-113l-87 -488h-130l87 488h-67v100h84l31 174c7.33301 41.333 25.333 75.666 54 102.999c32.667 31.333 73.667 46.666 123 45.999l74 -1v-109z" />
    <glyph glyph-name="circumflex" unicode="&#x2c6;" horiz-adv-x="500" 
d="M434 604h-101l-83 91l-83 -91h-101l132 169h104z" />
    <glyph glyph-name="caron" unicode="&#x2c7;" horiz-adv-x="500" 
d="M434 773l-132 -169h-104l-132 169h101l83 -90l83 90h101z" />
    <glyph glyph-name="breve" unicode="&#x2d8;" horiz-adv-x="500" 
d="M414 742c-2.66699 -51.333 -19.667 -90 -51 -116c-28.667 -23.333 -66 -35 -112 -35c-46.667 0 -84.334 11.667 -113.001 35c-32 26 -49.333 64.667 -52 116h88c4.66699 -40 30.334 -60 77.001 -60c46 0 71.333 20 76 60h87z" />
    <glyph glyph-name="dotaccent" unicode="&#x2d9;" horiz-adv-x="500" 
d="M317 608h-134v106h134v-106z" />
    <glyph glyph-name="ring" unicode="&#x2da;" horiz-adv-x="500" 
d="M381 715c0 -36 -12.833 -66.833 -38.5 -92.5s-56.5 -38.5 -92.5 -38.5s-66.833 12.833 -92.5 38.5s-38.5 56.5 -38.5 92.5s12.833 66.833 38.5 92.5s56.5 38.5 92.5 38.5s66.833 -12.667 92.5 -38s38.5 -56.333 38.5 -93zM308 715c0 16 -5.66699 29.667 -17 41
s-25 17 -41 17s-29.667 -5.66699 -41 -17s-17 -25 -17 -41s5.66699 -29.833 17 -41.5s25 -17.5 41 -17.5s29.667 5.83301 41 17.5s17 25.5 17 41.5z" />
    <glyph glyph-name="ogonek" unicode="&#x2db;" horiz-adv-x="500" 
d="M334 -206h-121l-44 146h97z" />
    <glyph glyph-name="tilde" unicode="&#x2dc;" horiz-adv-x="500" 
d="M430 674c-39.333 -39.333 -76.9971 -59 -112.997 -59c-24.667 0 -50.334 7.66699 -77.001 23c-20.667 12 -39.334 18 -56.001 18c-20 0 -39.667 -9.66699 -59 -29l-56 57c39.333 39.333 76.666 59 111.999 59c26 0 51.667 -7.66699 77 -23c20 -12 38.333 -18 55 -18
c20 0 39.667 9.66699 59 29z" />
    <glyph glyph-name="hungarumlaut" unicode="&#x2dd;" horiz-adv-x="500" 
d="M465 774l-115 -170h-86l63 170h138zM258 774l-114 -170h-87l63 170h138z" />
    <glyph glyph-name="Delta" unicode="&#x394;" horiz-adv-x="634" 
d="M631 0h-628l260 712h108zM450 117l-130 385l-134 -385h264z" />
    <glyph glyph-name="Delta" unicode="&#x2206;" horiz-adv-x="634" 
d="M631 0h-628l260 712h108zM450 117l-130 385l-134 -385h264z" />
    <glyph glyph-name="Omega" unicode="&#x3a9;" horiz-adv-x="644" 
d="M585 0l-219 -0.000976562v109c23.333 10.667 41.333 25.334 54 44.001c17.333 26 26 91.333 26 196c0 66.667 -2.66699 114.334 -8 143.001c-4.66699 26.667 -13.667 47.667 -27 63c-22.667 26 -52.334 39 -89.001 39c-43.333 0 -76 -16.333 -98 -49
c-17.333 -26 -26 -91.333 -26 -196s8.66699 -170 26 -196c12.667 -18.667 30.667 -33.334 54 -44.001v-109h-219v123h59c-16 16.667 -28 35 -36 55c-15.333 37.333 -23 96.666 -23 177.999c0 78 2.66699 131.667 8 161c9.33301 50 30 91 62 123c52 52 116.333 78 193 78
c76 0 140 -26 192 -78c32.667 -32.667 53.334 -73.667 62.001 -123c6 -30 9 -83.667 9 -161c0 -81.333 -7.66699 -140.666 -23 -177.999c-8 -20 -20 -38.333 -36 -55h59v-123z" />
    <glyph glyph-name="Omega" unicode="&#x2126;" horiz-adv-x="644" 
d="M585 0l-219 -0.000976562v109c23.333 10.667 41.333 25.334 54 44.001c17.333 26 26 91.333 26 196c0 66.667 -2.66699 114.334 -8 143.001c-4.66699 26.667 -13.667 47.667 -27 63c-22.667 26 -52.334 39 -89.001 39c-43.333 0 -76 -16.333 -98 -49
c-17.333 -26 -26 -91.333 -26 -196s8.66699 -170 26 -196c12.667 -18.667 30.667 -33.334 54 -44.001v-109h-219v123h59c-16 16.667 -28 35 -36 55c-15.333 37.333 -23 96.666 -23 177.999c0 78 2.66699 131.667 8 161c9.33301 50 30 91 62 123c52 52 116.333 78 193 78
c76 0 140 -26 192 -78c32.667 -32.667 53.334 -73.667 62.001 -123c6 -30 9 -83.667 9 -161c0 -81.333 -7.66699 -140.666 -23 -177.999c-8 -20 -20 -38.333 -36 -55h59v-123z" />
    <glyph glyph-name="pi" unicode="&#x3c0;" horiz-adv-x="592" 
d="M515 0h-129v399h-180v-399h-130v521h439v-521z" />
    <glyph glyph-name="endash" unicode="&#x2013;" 
d="M493 225h-443v121h443v-121z" />
    <glyph glyph-name="emdash" unicode="&#x2014;" horiz-adv-x="1027" 
d="M968 226h-909v125h909v-125z" />
    <glyph glyph-name="quoteleft" unicode="&#x2018;" horiz-adv-x="273" 
d="M204 589h-136v123l136 105v-228z" />
    <glyph glyph-name="quoteright" unicode="&#x2019;" horiz-adv-x="273" 
d="M204 588l-136 -103v227h136v-124z" />
    <glyph glyph-name="quotesinglbase" unicode="&#x201a;" horiz-adv-x="271" 
d="M204 0l-136 -104v228h136v-124z" />
    <glyph glyph-name="quotedblleft" unicode="&#x201c;" horiz-adv-x="482" 
d="M414 589h-136v123l136 105v-228zM203 589h-135v123l135 105v-228z" />
    <glyph glyph-name="quotedblright" unicode="&#x201d;" horiz-adv-x="482" 
d="M414 588l-136 -103v227h136v-124zM203 588l-135 -103v227h135v-124z" />
    <glyph glyph-name="quotedblbase" unicode="&#x201e;" horiz-adv-x="485" 
d="M414 0l-136 -104v228h136v-124zM203 0l-135 -104v228h135v-124z" />
    <glyph glyph-name="dagger" unicode="&#x2020;" horiz-adv-x="579" 
d="M522 410h-168v-410h-130v410h-167v117h167v185h130v-185h168v-117z" />
    <glyph glyph-name="daggerdbl" unicode="&#x2021;" horiz-adv-x="579" 
d="M522 -6h-168v-185h-130v185h-167v117h167v299h-167v117h167v185h130v-185h168v-117h-168v-299h168v-117z" />
    <glyph glyph-name="bullet" unicode="&#x2022;" horiz-adv-x="493" 
d="M409 334c0 -44.667 -15.833 -83 -47.5 -115s-70.167 -48 -115.5 -48c-44.667 0 -83 16 -115 48s-48 70.333 -48 115c0 45.333 16 83.833 48 115.5s70.333 47.5 115 47.5c45.333 0 83.833 -15.833 115.5 -47.5s47.5 -70.167 47.5 -115.5z" />
    <glyph glyph-name="ellipsis" unicode="&#x2026;" horiz-adv-x="846" 
d="M778 0h-141v141h141v-141zM493 0h-141v141h141v-141zM210 0h-142v141h142v-141z" />
    <glyph glyph-name="perthousand" unicode="&#x2030;" horiz-adv-x="1211" 
d="M1158 131c0 -43.333 -13.833 -77 -41.5 -101s-62.167 -36 -103.5 -36s-75.333 11.667 -102 35c-28.667 24.667 -43 58.667 -43 102v99c0 43.333 14.333 77.333 43 102c26.667 23.333 60.667 35 102 35s75.833 -12 103.5 -36s41.5 -57.667 41.5 -101v-99zM796 131
c0 -43.333 -13.833 -77 -41.5 -101s-62.167 -36 -103.5 -36s-75.333 11.667 -102 35c-28.667 24.667 -43 58.667 -43 102v99c0 43.333 14.333 77.333 43 102c26.667 23.333 60.667 35 102 35s75.833 -12 103.5 -36s41.5 -57.667 41.5 -101v-99zM644 712l-337 -712h-102
l337 712h102zM342 482c0 -43.333 -13.833 -77 -41.5 -101s-62.167 -36 -103.5 -36s-75.333 11.667 -102 35c-28.667 24.667 -43 58.667 -43 102v99c0 43.333 14.333 77.333 43 102c26.667 23.333 60.667 35 102 35s75.833 -12 103.5 -36s41.5 -57.667 41.5 -101v-99z
M1064 134v92c0 38 -17 57 -51 57s-51 -19 -51 -57v-91c0 -38 17 -57 51 -57s51 18.667 51 56zM702 135v91c0 38 -17 57 -51 57s-51 -19 -51 -57v-91c0 -38 17 -57 51 -57s51 19 51 57zM248 486v91c0 38 -17 57 -51 57s-51 -19 -51 -57v-91c0 -38 17 -57 51 -57s51 19 51 57z
" />
    <glyph glyph-name="guilsinglleft" unicode="&#x2039;" horiz-adv-x="350" 
d="M283 27l-249 248l249 248v-155l-94 -93l94 -93v-155z" />
    <glyph glyph-name="guilsinglright" unicode="&#x203a;" horiz-adv-x="350" 
d="M316 275l-249 -248v155l95 93l-95 93v155z" />
    <glyph glyph-name="fraction" unicode="&#x2044;" horiz-adv-x="208" 
d="M323 712l-337 -712h-101l337 712h101z" />
    <glyph glyph-name="trademark" unicode="&#x2122;" horiz-adv-x="924" 
d="M860 285h-95v252l-80 -157h-84l-80 157v-252h-95v427h95l122 -228l122 228h95v-427zM360 627h-110v-342h-95v342h-110v85h315v-85z" />
    <glyph glyph-name="partialdiff" unicode="&#x2202;" horiz-adv-x="555" 
d="M482 254c0 -91.333 -19.167 -157.5 -57.5 -198.5s-90.166 -61.5 -155.499 -61.5c-64.667 0 -116.334 20.667 -155.001 62s-58 107.333 -58 198c0 91.333 19 157.333 57 198s88.333 61 151 61c36.667 0 65.667 -9.66699 87 -29v27c0 23.333 -7.33301 44 -22 62
c-18.667 23.333 -46 35 -82 35c-40.667 0 -74.667 -13.333 -102 -40l-81 82c47.333 45.333 110.333 68 189 68c74 0 131.333 -22.333 172 -67c38 -42 57 -98.667 57 -170v-227zM352 254c0 61.333 -9 101.333 -27 120c-14 14.667 -32.667 22 -56 22s-42 -7.33301 -56 -22
c-18 -18.667 -27 -58.667 -27 -120c0 -62 9 -102.333 27 -121c14 -14.667 32.667 -22 56 -22s42 7.33301 56 22c18 18.667 27 59 27 121z" />
    <glyph glyph-name="product" unicode="&#x220f;" horiz-adv-x="685" 
d="M602 -191h-139v828h-241v-828h-139v951h519v-951z" />
    <glyph glyph-name="summation" unicode="&#x2211;" horiz-adv-x="552" 
d="M515 -191h-475v110l189 376l-186 355v110h468v-124h-306l141 -279v-129l-146 -295h315v-124z" />
    <glyph glyph-name="radical" unicode="&#x221a;" horiz-adv-x="596" 
d="M566 588h-92l-194 -588h-105l-172 521h141l84 -273l143 464h195v-124z" />
    <glyph glyph-name="infinity" unicode="&#x221e;" horiz-adv-x="851" 
d="M796 284c0 -54.667 -16.001 -99 -48.001 -133c-34.667 -36.667 -82 -55 -142 -55c-65.333 0 -125.666 31.333 -180.999 94c-55.333 -62.667 -115.333 -94 -180 -94c-60 0 -107 18.333 -141 55c-32.667 34 -49 78.333 -49 133s16.333 99.334 49 134.001
c34 37.333 81 56 141 56c64 0 124 -31.667 180 -95c56 63.333 116.333 95 181 95c60 0 107.333 -18.667 142 -56c32 -34.667 48 -79.334 48 -134.001zM669.999 281c0 20 -6.33301 35.833 -19 47.5s-28 17.5 -46 17.5c-24.667 0 -55 -21.667 -91 -65
c36 -43.333 66.333 -65 91 -65c18 0 33.333 5.83301 46 17.5s19 27.5 19 47.5zM336.999 281c-36.667 44 -67.333 66 -92 66c-18 0 -33.167 -6 -45.5 -18s-18.5 -28 -18.5 -48s6.16699 -35.833 18.5 -47.5s27.5 -17.5 45.5 -17.5c25.333 0 56 21.667 92 65z" />
    <glyph glyph-name="integral" unicode="&#x222b;" horiz-adv-x="490" 
d="M433 615h-49c-47.333 0 -71 -23.667 -71 -71v-549c0 -57.333 -17.333 -101.833 -52 -133.5s-81 -47.5 -139 -47.5h-65v110h49c47.333 0 71 23.333 71 70v549c0 57.333 17.333 102 52 134s81 48 139 48h65v-110z" />
    <glyph glyph-name="approxequal" unicode="&#x2248;" horiz-adv-x="606" 
d="M569 393c-31.333 -31.333 -59.167 -53.5 -83.5 -66.5s-51.5 -19.5 -81.5 -19.5c-36 0 -75 11 -117 33c-30 16 -57.333 24 -82 24c-29.333 0 -58 -14 -86 -42l-82 82c32 32 59.833 54.333 83.5 67s50.5 19 80.5 19c36 0 75 -11 117 -33c31.333 -16.667 58.333 -25 81 -25
c29.333 0 58.333 14.333 87 43zM568.999 167c-32 -32 -59.333 -54 -82 -66c-24.667 -13.333 -52 -20 -82 -20c-36 0 -75 11 -117 33c-31.333 16.667 -58.333 25 -81 25c-29.333 0 -58.333 -14.333 -87 -43l-83 82c31.333 31.333 59.333 53.5 84 66.5s52 19.5 82 19.5
c35.333 0 74 -11 116 -33c30 -16 57.333 -24 82 -24c29.333 0 58 14 86 42z" />
    <glyph glyph-name="approxequal" unicode="&#x22f2;" horiz-adv-x="606" 
d="M569 393c-31.333 -31.333 -59.167 -53.5 -83.5 -66.5s-51.5 -19.5 -81.5 -19.5c-36 0 -75 11 -117 33c-30 16 -57.333 24 -82 24c-29.333 0 -58 -14 -86 -42l-82 82c32 32 59.833 54.333 83.5 67s50.5 19 80.5 19c36 0 75 -11 117 -33c31.333 -16.667 58.333 -25 81 -25
c29.333 0 58.333 14.333 87 43zM568.999 167c-32 -32 -59.333 -54 -82 -66c-24.667 -13.333 -52 -20 -82 -20c-36 0 -75 11 -117 33c-31.333 16.667 -58.333 25 -81 25c-29.333 0 -58.333 -14.333 -87 -43l-83 82c31.333 31.333 59.333 53.5 84 66.5s52 19.5 82 19.5
c35.333 0 74 -11 116 -33c30 -16 57.333 -24 82 -24c29.333 0 58 14 86 42z" />
    <glyph glyph-name="notequal" unicode="&#x2260;" horiz-adv-x="602" 
d="M552 116h-320l-103 -129l-79 62l55 67h-55v122h149l78 95h-227v122h320l103 129l79 -62l-55 -67h55v-122h-148l-78 -95h226v-122z" />
    <glyph glyph-name="lessequal" unicode="&#x2264;" horiz-adv-x="1027" 
d="M884 1l-87 -87l-497 498l1 -460l-116 116v545h546l116 -116l-460 2z" />
    <glyph glyph-name="greaterequal" unicode="&#x2265;" horiz-adv-x="1027" 
d="M841 69l-116 -116l2 459l-498 -498l-87 87l498 498l-460 -2l116 116h545v-544z" />
    <glyph glyph-name="lozenge" unicode="&#x25ca;" horiz-adv-x="636" 
d="M581 341l-263 -367l-263 367l263 366zM435 341l-117 164l-117 -164l117 -165z" />
    <glyph glyph-name="fi" unicode="&#xf001;" horiz-adv-x="602" 
d="M532 610h-134v106h134v-106zM530 0h-130v506h130v-506zM311 407h-96v-407h-130v407h-54v99h54v65c0 40.667 12 74.667 36 102c28 31.333 66.667 47 116 47h74v-110h-50c-30.667 0 -46 -15.667 -46 -47v-57h96v-99z" />
    <glyph glyph-name="fl" unicode="&#xf002;" horiz-adv-x="648" 
d="M624 0h-74c-50 0 -88.667 15.667 -116 47c-24 27.333 -36 61.333 -36 102v563h130v-555c0 -31.333 15.333 -47 46 -47h50v-110zM311 407h-96v-407h-130v407h-54v99h54v65c0 40.667 12 74.667 36 102c28 31.333 66.667 47 116 47h74v-110h-50
c-30.667 0 -46 -15.667 -46 -47v-57h96v-99z" />
    <glyph glyph-name=".null" horiz-adv-x="0" 
 />
    <glyph glyph-name="nonmarkingreturn" horiz-adv-x="232" 
 />
    <glyph glyph-name="DC4" horiz-adv-x="328" 
d="M309 60h-39v-60h-76v60h-175v74l147 293h86l-147 -293h89v80h76v-80h39v-74z" />
  </font>
</defs>
</svg>
